<?xml version="1.0" encoding="UTF-8"?>
<!DOCTYPE svg PUBLIC "-//W3C//DTD SVG 1.1//EN" "http://www.w3.org/Graphics/SVG/1.1/DTD/svg11.dtd">
<!-- Creator: CorelDRAW -->
<svg xmlns="http://www.w3.org/2000/svg" xml:space="preserve" width="388.2mm" height="110.18mm" version="1.1" style="shape-rendering:geometricPrecision; text-rendering:geometricPrecision; image-rendering:optimizeQuality; fill-rule:evenodd; clip-rule:evenodd"
viewBox="0 0 12679 3598.59"
 xmlns:xlink="http://www.w3.org/1999/xlink"
 xmlns:xodm="http://www.corel.com/coreldraw/odm/2003">
 <defs>
  <style type="text/css">
   <![CDATA[
    .str0 {stroke:#82bf99;stroke-width:6.53;stroke-miterlimit:22.9256}
    .fil0 {fill:#0f2818;fill-rule:nonzero}
   ]]>
  </style>
 </defs>
 <g id="Слой_x0020_1">
  <metadata id="CorelCorpID_0Corel-Layer"/>
  <g id="_1489178326432">
   <g>
    <path class="fil0 str0" d="M2399.85 18.26c0,8.06 4.61,19.59 10.37,25.35 5.76,6.91 21.89,47.24 35.72,92.18 13.83,43.79 62.22,176.29 106,293.81 79.5,209.7 139.42,387.14 185.5,547.3 39.17,135.96 35.72,132.5 58.76,88.72 24.2,-46.09 32.26,-47.24 17.28,-2.31 -6.91,18.43 -17.28,34.57 -23.05,34.57 -4.61,0 -6.91,9.22 -2.31,19.59 3.46,11.52 -3.46,8.06 -14.98,-8.06 -11.52,-16.13 -28.8,-35.72 -39.17,-43.79 -9.22,-9.22 -10.37,-12.68 -2.31,-8.06 19.59,10.37 17.28,-5.76 -8.06,-77.2 -11.52,-33.42 -25.35,-76.04 -28.8,-94.48 -16.13,-67.98 -54.16,-131.35 -88.72,-145.18 -42.63,-18.43 -57.61,-40.33 -20.74,-29.96 26.5,8.06 26.5,8.06 5.76,-9.22 -12.68,-10.37 -29.96,-19.59 -38.02,-19.59 -8.06,-1.15 -21.89,-2.31 -28.8,-3.46 -8.06,0 -14.98,-6.91 -14.98,-13.83 0,-13.83 -62.22,-87.57 -86.41,-102.55 -10.37,-5.76 -12.68,-4.61 -6.91,3.46 4.61,8.06 10.37,25.35 12.68,39.17 6.91,33.42 67.98,95.63 139.42,141.72 72.59,47.24 88.72,67.98 34.57,46.09 -49.54,-20.74 -57.61,-21.89 -49.54,-2.31 3.46,9.22 -4.61,16.13 -18.43,17.28 -20.74,1.15 -21.89,-1.15 -8.06,-10.37 13.83,-10.37 13.83,-11.52 -3.46,-5.76 -26.5,9.22 -74.89,-14.98 -55.3,-26.5 10.37,-6.91 9.22,-12.68 -4.61,-24.2 -13.83,-11.52 -17.28,-11.52 -17.28,0 0,8.06 -19.59,-5.76 -43.79,-29.96 -49.54,-50.7 -152.09,-191.27 -152.09,-209.7 0,-5.76 -6.91,-13.83 -16.13,-17.28 -9.22,-3.46 -19.59,-18.43 -23.05,-33.42 -3.46,-14.98 -3.46,5.76 -1.15,46.09 3.46,49.54 14.98,88.72 34.57,122.13 33.42,57.61 35.72,66.83 11.52,57.61 -25.35,-10.37 -20.74,10.37 5.76,27.65 12.68,8.06 23.05,19.59 23.05,27.65 0,6.91 -9.22,4.61 -21.89,-6.91 -21.89,-19.59 -21.89,-18.43 -11.52,24.2 5.76,24.2 10.37,48.39 10.37,53 0,5.76 5.76,5.76 13.83,1.15 8.06,-4.61 9.22,-3.46 4.61,4.61 -21.89,35.72 84.11,163.61 171.68,208.55 57.61,28.8 170.53,58.76 224.68,58.76 21.89,0 46.09,4.61 53,9.22 10.37,8.06 62.22,169.37 62.22,198.18 0,6.91 -25.35,-9.22 -56.46,-35.72 -29.96,-26.5 -80.65,-62.22 -111.76,-79.5 -56.46,-31.11 -137.11,-54.16 -126.74,-35.72 3.46,5.76 23.05,12.68 42.63,17.28 39.17,6.91 118.68,51.85 109.46,61.07 -2.31,3.46 -16.13,-1.15 -31.11,-8.06 -13.83,-8.06 -55.3,-16.13 -91.02,-17.28 -35.72,-1.15 -81.81,-6.91 -103.7,-11.52 -32.26,-6.91 -38.02,-5.76 -26.5,6.91 8.06,8.06 43.79,16.13 80.65,18.43 89.87,5.76 120.98,13.83 112.92,26.5 -3.46,6.91 -27.65,11.52 -51.85,11.52 -24.2,0 -48.39,5.76 -53,13.83 -5.76,9.22 14.98,11.52 82.96,5.76 70.28,-5.76 97.94,-3.46 119.83,10.37l28.8 17.28 -29.96 -4.61c-26.5,-3.46 -58.76,14.98 -55.3,34.57 1.15,10.37 -38.02,25.35 -49.54,18.43 -4.61,-2.31 -21.89,4.61 -38.02,14.98 -16.13,10.37 -28.8,16.13 -28.8,12.68 0,-3.46 28.8,-24.2 63.37,-44.94 34.57,-20.74 63.37,-41.48 63.37,-46.09 0,-12.68 -9.22,-11.52 -38.02,4.61 -13.83,6.91 -49.54,11.52 -79.5,10.37 -43.79,-2.31 -54.16,1.15 -48.39,13.83 6.91,18.43 -25.35,35.72 -43.79,24.2 -6.91,-4.61 -5.76,-11.52 3.46,-18.43 10.37,-6.91 2.31,-8.06 -24.2,-3.46 -21.89,3.46 -79.5,9.22 -126.74,11.52l-86.41 5.76 44.94 -26.5c24.2,-13.83 54.16,-31.11 65.67,-38.02 11.52,-6.91 54.16,-11.52 93.33,-9.22 49.54,1.15 63.37,-1.15 43.79,-6.91 -16.13,-4.61 -23.05,-10.37 -17.28,-11.52 13.83,-2.31 -27.65,-20.74 -49.54,-21.89 -8.06,-1.15 -12.68,3.46 -9.22,9.22 4.61,5.76 -2.31,8.06 -13.83,4.61 -31.11,-8.06 -86.41,16.13 -76.04,33.42 5.76,11.52 4.61,11.52 -6.91,1.15 -17.28,-16.13 -46.09,-6.91 -46.09,13.83 0,8.06 -8.06,20.74 -17.28,28.8 -33.42,27.65 -19.59,55.3 42.63,91.02 41.48,24.2 70.28,33.42 89.87,28.8 23.05,-4.61 25.35,-3.46 11.52,5.76 -13.83,9.22 -9.22,12.68 23.05,13.83 21.89,1.15 46.09,0 51.85,-1.15 6.91,-2.31 27.65,-5.76 46.09,-8.06 29.96,-3.46 31.11,-2.31 11.52,8.06 -17.28,9.22 -9.22,10.37 33.42,5.76 31.11,-3.46 64.53,-5.76 74.89,-6.91 10.37,-1.15 6.91,-5.76 -10.37,-11.52 -25.35,-8.06 -23.05,-9.22 11.52,-5.76 46.09,4.61 85.26,-11.52 73.74,-29.96 -4.61,-6.91 -3.46,-9.22 4.61,-4.61 6.91,3.46 26.5,-8.06 44.94,-27.65 28.8,-31.11 86.41,-56.46 81.81,-36.87 -1.15,4.61 2.31,16.13 6.91,27.65 4.61,10.37 3.46,38.02 -3.46,63.37 -6.91,24.2 -12.68,50.7 -12.68,59.91 0,28.8 32.26,-9.22 41.48,-48.39 3.46,-20.74 12.68,-49.54 19.59,-65.67 6.91,-16.13 12.68,-33.42 12.68,-40.33 1.15,-5.76 18.43,-21.89 39.17,-35.72 36.87,-25.35 40.33,-25.35 92.18,-8.06 133.66,42.63 224.68,64.53 216.61,51.85 -3.46,-6.91 29.96,-9.22 82.96,-8.06 48.39,2.31 111.76,-2.31 140.57,-10.37 70.28,-18.43 184.35,-78.35 216.61,-114.07l26.5 -28.8 -27.65 -6.91c-14.98,-3.46 -43.79,-1.15 -63.37,3.46 -20.74,5.76 -66.83,12.68 -102.55,13.83 -77.2,2.31 -85.26,5.76 -77.2,26.5 5.76,13.83 11.52,13.83 36.87,0 17.28,-9.22 41.48,-16.13 54.16,-16.13 19.59,0 17.28,3.46 -11.52,23.05 -46.09,31.11 -97.94,31.11 -97.94,0 0,-20.74 -18.43,-28.8 -48.39,-24.2 -5.76,0 -9.22,-3.46 -9.22,-10.37 0,-5.76 -9.22,-10.37 -19.59,-9.22 -42.63,3.46 -85.26,-2.31 -80.65,-11.52 3.46,-4.61 -29.96,-9.22 -74.89,-10.37 -78.35,-2.31 -82.96,-1.15 -134.81,41.48 -28.8,24.2 -67.98,47.24 -87.57,51.85l-34.57 6.91 36.87 -19.59c19.59,-11.52 87.57,-62.22 149.79,-112.92 182.05,-148.63 583.02,-432.08 610.67,-432.08 6.91,0 65.67,-35.72 131.35,-79.5 116.37,-76.04 176.29,-127.89 150.94,-127.89 -6.91,0 -13.83,5.76 -16.13,12.68 -2.31,6.91 -19.59,12.68 -38.02,12.68 -40.33,-1.15 -178.59,43.79 -178.59,57.61 0,11.52 -141.72,79.5 -149.79,71.44 -2.31,-3.46 5.76,-14.98 18.43,-25.35 26.5,-20.74 44.94,-59.91 28.8,-59.91 -11.52,0 -56.46,42.63 -91.02,87.57 -20.74,25.35 -25.35,27.65 -21.89,10.37 3.46,-12.68 9.22,-32.26 13.83,-43.79 8.06,-19.59 6.91,-19.59 -12.68,-8.06 -39.17,25.35 -100.24,118.68 -115.22,176.29 -20.74,80.65 -27.65,79.5 -28.8,-4.61l-1.15 -73.74 -17.28 42.63c-18.43,46.09 -44.94,61.07 -32.26,19.59 5.76,-17.28 3.46,-23.05 -5.76,-19.59 -8.06,2.31 -24.2,31.11 -36.87,64.53 -12.68,33.42 -27.65,57.61 -33.42,54.16 -5.76,-4.61 -10.37,1.15 -10.37,10.37 0,10.37 -10.37,34.57 -24.2,55.3l-24.2 38.02 6.91 -50.7c4.61,-27.65 14.98,-61.07 24.2,-73.74 9.22,-13.83 17.28,-35.72 16.13,-48.39l0 -23.05 -10.37 23.05c-4.61,13.83 -17.28,31.11 -27.65,39.17 -9.22,8.06 -20.74,32.26 -25.35,54.16 -3.46,21.89 -11.52,39.17 -17.28,39.17 -5.76,0 -9.22,3.46 -9.22,8.06 3.46,23.05 -2.31,39.17 -11.52,33.42 -12.68,-8.06 -8.06,-59.91 9.22,-104.85 8.06,-18.43 11.52,-42.63 9.22,-54.16 -3.46,-11.52 -1.15,-20.74 3.46,-20.74 11.52,0 39.17,-79.5 31.11,-87.57 -2.31,-2.31 -21.89,23.05 -43.79,58.76 -21.89,35.72 -41.48,57.61 -46.09,50.7 -9.22,-14.98 -41.48,65.67 -55.3,139.42 -10.37,50.7 -10.37,50.7 -11.52,10.37 -1.15,-23.05 9.22,-70.28 20.74,-106 16.13,-46.09 18.43,-65.67 9.22,-69.13 -8.06,-2.31 3.46,-21.89 26.5,-44.94 21.89,-23.05 50.7,-53 63.37,-67.98l23.05 -27.65 -28.8 23.05c-59.91,48.39 -103.7,102.55 -97.94,122.13 3.46,10.37 -1.15,25.35 -10.37,32.26 -9.22,8.06 -20.74,28.8 -24.2,47.24 -3.46,18.43 -14.98,40.33 -25.35,48.39 -16.13,12.68 -16.13,10.37 1.15,-25.35 10.37,-21.89 24.2,-49.54 31.11,-61.07 6.91,-12.68 9.22,-24.2 6.91,-26.5 -3.46,-3.46 -24.2,27.65 -47.24,69.13 -41.48,73.74 -51.85,111.76 -76.04,271.92 -12.68,84.11 -59.91,191.27 -79.5,178.59 -10.37,-5.76 -17.28,-41.48 -31.11,-144.03 -5.76,-43.79 -2.31,-58.76 23.05,-92.18 53,-73.74 89.87,-138.26 100.24,-176.29 4.61,-20.74 13.83,-55.3 19.59,-78.35 5.76,-24.2 6.91,-49.54 1.15,-57.61 -8.06,-12.68 -10.37,-11.52 -10.37,4.61 0,11.52 -4.61,17.28 -11.52,13.83 -5.76,-3.46 -11.52,0 -11.52,8.06 0,9.22 -6.91,26.5 -16.13,38.02 -13.83,19.59 -14.98,12.68 -11.52,-55.3 2.31,-42.63 2.31,-77.2 0,-77.2 -3.46,0 -16.13,35.72 -29.96,80.65 -13.83,43.79 -26.5,80.65 -28.8,80.65 -2.31,0 -3.46,-23.05 -1.15,-51.85 2.31,-39.17 -1.15,-50.7 -11.52,-47.24 -26.5,10.37 -29.96,-12.68 -29.96,-178.59 0,-88.72 -2.31,-160.16 -4.61,-157.85 -1.15,2.31 -8.06,69.13 -13.83,148.63 -5.76,80.65 -17.28,155.55 -24.2,167.07 -10.37,18.43 -12.68,14.98 -10.37,-24.2 2.31,-49.54 -23.05,-167.07 -35.72,-167.07 -4.61,0 -9.22,-18.43 -10.37,-40.33 -2.31,-21.89 -8.06,-51.85 -13.83,-65.67 -9.22,-25.35 -10.37,-24.2 -11.52,8.06 0,29.96 -2.31,32.26 -12.68,13.83 -6.91,-11.52 -9.22,-34.57 -5.76,-51.85 3.46,-17.28 3.46,-24.2 0,-17.28 -3.46,8.06 -11.52,14.98 -18.43,14.98 -8.06,0 -10.37,-25.35 -4.61,-74.89 5.76,-55.3 3.46,-85.26 -10.37,-116.37 -9.22,-24.2 -20.74,-39.17 -25.35,-34.57 -4.61,3.46 -1.15,13.83 5.76,20.74 16.13,16.13 18.43,101.39 2.31,101.39 -5.76,0 -13.83,-19.59 -17.28,-43.79 -3.46,-23.05 -13.83,-57.61 -24.2,-76.04 -14.98,-29.96 -14.98,-32.26 3.46,-25.35 16.13,6.91 17.28,4.61 6.91,-5.76 -19.59,-19.59 -35.72,-3.46 -29.96,32.26 4.61,31.11 4.61,31.11 -12.68,10.37 -10.37,-12.68 -16.13,-32.26 -11.52,-43.79 3.46,-11.52 1.15,-20.74 -5.76,-20.74 -6.91,0 -12.68,5.76 -12.68,12.68 0,29.96 -20.74,-5.76 -27.65,-48.39 -5.76,-33.42 -13.83,-49.54 -29.96,-53 -12.68,-3.46 -19.59,-10.37 -16.13,-16.13 3.46,-5.76 0,-10.37 -5.76,-10.37 -6.91,0 -12.68,6.91 -12.68,14.98l-0.01 0.01zm6.91 730.5c26.5,32.26 69.13,63.37 132.5,94.48 51.85,26.5 87.57,47.24 80.65,47.24 -8.06,0 -10.37,5.76 -5.76,13.83 12.68,20.74 -89.87,2.31 -106,-18.43 -6.91,-10.37 -18.43,-18.43 -26.5,-18.43 -6.91,0 -12.68,-5.76 -12.68,-11.52 0,-6.91 -10.37,-11.52 -23.05,-11.52 -12.68,0 -26.5,-9.22 -31.11,-20.74 -3.46,-10.37 -25.35,-39.17 -47.24,-63.37 -20.74,-25.35 -43.79,-59.91 -50.7,-78.35 -5.76,-18.43 -16.13,-33.42 -21.89,-33.42 -9.22,0 -56.46,-81.81 -56.46,-99.09 0,-4.61 28.8,27.65 64.53,71.44 34.57,43.79 81.81,101.39 103.7,127.89l0.01 0zm56.46 -134.81c3.46,6.91 -1.15,8.06 -10.37,4.61 -20.74,-8.06 -24.2,-16.13 -8.06,-16.13 6.91,0 14.98,4.61 18.43,11.52zm647.54 221.23c-3.46,9.22 -6.91,5.76 -6.91,-6.91 -1.15,-12.68 2.31,-19.59 5.76,-14.98 3.46,3.46 4.61,13.83 1.15,21.89zm-668.28 38.02c10.37,27.65 -1.15,31.11 -17.28,5.76 -9.22,-14.98 -9.22,-23.05 -2.31,-23.05 6.91,0 14.98,8.06 19.59,17.28l0 0zm464.34 11.52c0,9.22 -4.61,17.28 -11.52,17.28 -5.76,0 -8.06,-8.06 -4.61,-17.28 4.61,-9.22 9.22,-17.28 11.52,-17.28 2.31,0 4.61,8.06 4.61,17.28zm-501.21 40.33c18.43,19.59 18.43,23.05 3.46,17.28 -10.37,-4.61 -21.89,-14.98 -25.35,-24.2 -8.06,-21.89 -2.31,-20.74 21.89,6.91l0 -0zm120.98 5.76c18.43,10.37 21.89,16.13 10.37,17.28 -9.22,0 -27.65,-8.06 -40.33,-17.28 -27.65,-20.74 -8.06,-21.89 29.96,0zm346.81 43.79c-11.52,10.37 -12.68,9.22 -5.76,-6.91 3.46,-11.52 10.37,-17.28 13.83,-13.83 3.46,3.46 0,12.68 -8.06,20.74zm-269.62 72.59c-3.46,3.46 -13.83,4.61 -21.89,1.15 -9.22,-3.46 -5.76,-6.91 6.91,-6.91 12.68,-1.15 19.59,2.31 14.98,5.76zm1002.42 138.26c-3.46,3.46 -13.83,4.61 -21.89,1.15 -9.22,-3.46 -5.76,-6.91 6.91,-6.91 12.68,-1.15 19.59,2.31 14.98,5.76zm-82.96 65.67c-31.11,14.98 -72.59,31.11 -91.02,35.72 -55.3,13.83 -10.37,-19.59 56.46,-41.48 84.11,-27.65 100.24,-24.2 34.57,5.76zm-138.26 42.63c-3.46,5.76 -26.5,10.37 -49.54,10.37l-42.63 -1.15 34.57 -9.22c50.7,-12.68 65.67,-12.68 57.61,0zm-1140.69 46.09c-3.46,5.76 -13.83,11.52 -20.74,11.52 -8.06,0 -6.91,-4.61 3.46,-11.52 21.89,-13.83 26.5,-13.83 17.28,0zm221.22 53c-3.46,3.46 -13.83,4.61 -21.89,1.15 -9.22,-3.46 -5.76,-6.91 6.91,-6.91 12.68,-1.15 19.59,2.31 14.98,5.76z"/>
    <path class="fil0 str0" d="M2350.31 58.58c-27.65,31.11 -24.2,41.48 4.61,12.68 12.68,-12.68 21.89,-26.5 18.43,-28.8 -2.31,-2.31 -12.68,4.61 -23.05,16.13l0 -0z"/>
    <path class="fil0 str0" d="M2550.79 52.82c2.31,1.15 14.98,10.37 27.65,19.59 21.89,16.13 21.89,16.13 6.91,-3.46 -8.06,-10.37 -20.74,-19.59 -27.65,-19.59 -6.91,0 -9.22,1.15 -6.91,3.46z"/>
    <path class="fil0 str0" d="M2389.48 79.32c0,12.68 3.46,16.13 6.91,6.91 3.46,-8.06 2.31,-18.43 -1.15,-21.89 -3.46,-4.61 -6.91,2.31 -5.76,14.98z"/>
    <path class="fil0 str0" d="M2520.83 106.98c3.46,5.76 12.68,11.52 18.43,11.52 6.91,0 8.06,-5.76 4.61,-11.52 -3.46,-6.91 -12.68,-11.52 -18.43,-11.52 -6.91,0 -8.06,4.61 -4.61,11.52z"/>
    <path class="fil0 str0" d="M2404.46 125.41c6.91,17.28 25.35,124.44 34.57,205.09 3.46,24.2 13.83,53 24.2,63.37 10.37,10.37 25.35,28.8 34.57,41.48 12.68,19.59 12.68,13.83 0,-40.33 -46.09,-182.05 -79.5,-288.05 -93.33,-288.05 -3.46,0 -3.46,8.06 0,18.43l0 0z"/>
    <path class="fil0 str0" d="M2372.2 143.85c-3.46,14.98 -1.15,31.11 4.61,36.87 8.06,8.06 11.52,-1.15 11.52,-25.35 0,-42.63 -5.76,-47.24 -16.13,-11.52z"/>
    <path class="fil0 str0" d="M2256.98 227.96c-3.46,10.37 -6.91,27.65 -5.76,38.02 0,10.37 5.76,4.61 11.52,-13.83 10.37,-36.87 6.91,-55.3 -5.76,-24.2l0 -0z"/>
    <path class="fil0 str0" d="M2365.29 230.26c0,12.68 8.06,23.05 17.28,23.05 9.22,0 17.28,-4.61 17.28,-8.06 0,-4.61 -8.06,-14.98 -17.28,-23.05 -13.83,-11.52 -17.28,-10.37 -17.28,8.06z"/>
    <path class="fil0 str0" d="M2319.2 233.72c0,10.37 18.43,46.09 40.33,80.65 35.72,55.3 47.24,87.57 41.48,118.68 -3.46,18.43 46.09,76.04 87.57,101.39 23.05,14.98 35.72,28.8 28.8,31.11 -18.43,5.76 9.22,48.39 31.11,48.39 28.8,0 5.76,-82.96 -32.26,-115.22 -18.43,-16.13 -36.87,-40.33 -41.48,-55.3 -3.46,-13.83 -13.83,-25.35 -23.05,-25.35 -8.06,0 -24.2,-26.5 -35.72,-57.61 -11.52,-32.26 -26.5,-57.61 -33.42,-57.61 -6.91,0 -24.2,-19.59 -38.02,-43.79 -13.83,-23.05 -25.35,-34.57 -25.35,-25.35l0.01 0z"/>
    <path class="fil0 str0" d="M2752.43 238.33c3.46,9.22 14.98,19.59 25.35,24.2 14.98,5.76 14.98,2.31 -3.46,-17.28 -24.2,-27.65 -29.96,-28.8 -21.89,-6.91l0 0z"/>
    <path class="fil0 str0" d="M2285.78 287.87c-1.15,26.5 3.46,49.54 9.22,51.85 5.76,1.15 24.2,28.8 40.33,61.07 24.2,46.09 28.8,50.7 24.2,23.05 -3.46,-19.59 -16.13,-55.3 -28.8,-80.65 -11.52,-25.35 -26.5,-58.76 -32.26,-74.89 -11.52,-26.5 -12.68,-25.35 -12.68,19.59l0 0z"/>
    <path class="fil0 str0" d="M2238.54 318.98c0,17.28 4.61,28.8 10.37,25.35 11.52,-8.06 10.37,-35.72 -2.31,-48.39 -4.61,-4.61 -8.06,5.76 -8.06,23.05z"/>
    <path class="fil0 str0" d="M2737.45 360.46c0,28.8 2.31,40.33 4.61,25.35 2.31,-13.83 2.31,-36.87 0,-51.85 -2.31,-13.83 -4.61,-2.31 -4.61,26.5z"/>
    <path class="fil0 str0" d="M2828.47 371.99c0,16.13 2.31,21.89 5.76,13.83 2.31,-6.91 2.31,-20.74 0,-28.8 -3.46,-6.91 -5.76,-1.15 -5.76,14.98z"/>
    <path class="fil0 str0" d="M2849.21 355.85c0,6.91 8.06,21.89 18.43,34.57 16.13,20.74 16.13,20.74 3.46,-6.91 -16.13,-35.72 -21.89,-41.48 -21.89,-27.65l0 0z"/>
    <path class="fil0 str0" d="M2225.87 371.99c-8.06,21.89 11.52,80.65 26.5,80.65 8.06,0 8.06,-4.61 0,-14.98 -6.91,-6.91 -13.83,-29.96 -16.13,-48.39 -2.31,-21.89 -5.76,-27.65 -10.37,-17.28l0 0z"/>
    <path class="fil0 str0" d="M2284.63 407.7c0,5.76 -4.61,8.06 -11.52,4.61 -5.76,-3.46 -11.52,-1.15 -11.52,4.61 0,6.91 5.76,12.68 11.52,12.68 6.91,0 11.52,5.76 11.52,12.68 0,25.35 149.79,238.51 184.35,263.86 48.39,34.57 43.79,20.74 -11.52,-34.57 -41.48,-41.48 -69.13,-86.41 -64.53,-103.7 0,-3.46 -16.13,-24.2 -36.87,-46.09 -20.74,-21.89 -42.63,-59.91 -49.54,-84.11 -10.37,-40.33 -21.89,-56.46 -21.89,-29.96l0 -0z"/>
    <path class="fil0 str0" d="M2864.19 492.97c0,38.02 2.31,51.85 4.61,31.11 2.31,-20.74 2.31,-51.85 0,-69.13 -2.31,-17.28 -4.61,0 -4.61,38.02z"/>
    <path class="fil0 str0" d="M3591.23 488.36c-21.89,25.35 -21.89,25.35 3.46,11.52 27.65,-13.83 44.94,-35.72 28.8,-35.72 -5.76,0 -19.59,11.52 -32.26,24.2l0 0z"/>
    <path class="fil0 str0" d="M3644.24 476.84c0,5.76 5.76,8.06 11.52,4.61 6.91,-3.46 11.52,-9.22 11.52,-12.68 0,-2.31 -4.61,-4.61 -11.52,-4.61 -5.76,0 -11.52,5.76 -11.52,12.68z"/>
    <path class="fil0 str0" d="M3745.63 472.23c32.26,2.31 87.57,2.31 120.98,0 32.26,-2.31 5.76,-3.46 -61.07,-3.46 -66.83,0 -93.33,1.15 -59.91,3.46l-0 0z"/>
    <path class="fil0 str0" d="M3540.54 487.21c-9.22,5.76 -11.52,11.52 -5.76,11.52 6.91,0 19.59,-5.76 28.8,-11.52 9.22,-5.76 12.68,-11.52 5.76,-11.52 -5.76,0 -19.59,5.76 -28.8,11.52z"/>
    <path class="fil0 str0" d="M3995.66 491.82c-10.37,11.52 -19.59,87.57 -10.37,87.57 5.76,0 29.96,-93.33 25.35,-97.94 -2.31,-2.31 -8.06,2.31 -14.98,10.37z"/>
    <path class="fil0 str0" d="M3454.12 510.25c-3.46,6.91 1.15,8.06 10.37,4.61 20.74,-8.06 24.2,-16.13 8.06,-16.13 -6.91,0 -14.98,4.61 -18.43,11.52z"/>
    <path class="fil0 str0" d="M3295.12 566.71c-86.41,42.63 -129.05,69.13 -82.96,51.85 17.28,-6.91 19.59,-4.61 12.68,13.83 -6.91,19.59 -5.76,19.59 14.98,-2.31 12.68,-13.83 51.85,-41.48 86.41,-62.22 35.72,-19.59 64.53,-38.02 64.53,-41.48 0,-5.76 5.76,-9.22 -95.63,40.33l0 0z"/>
    <path class="fil0 str0" d="M3933.44 551.73c-32.26,21.89 -34.57,26.5 -13.83,24.2 24.2,-1.15 67.98,-38.02 57.61,-47.24 -2.31,-2.31 -21.89,8.06 -43.79,23.05z"/>
    <path class="fil0 str0" d="M2850.36 625.47c0,16.13 -4.61,41.48 -8.06,57.61 -5.76,25.35 -4.61,26.5 6.91,8.06 6.91,-10.37 10.37,-36.87 8.06,-57.61 -3.46,-28.8 -4.61,-29.96 -6.91,-8.06z"/>
    <path class="fil0 str0" d="M3352.73 636.99c-11.52,18.43 -16.13,34.57 -11.52,34.57 5.76,0 19.59,-16.13 29.96,-34.57 11.52,-19.59 16.13,-34.57 11.52,-34.57 -5.76,0 -19.59,14.98 -29.96,34.57z"/>
    <path class="fil0 str0" d="M3968.01 620.86c0,12.68 3.46,16.13 6.91,6.91 3.46,-8.06 2.31,-18.43 -1.15,-21.89 -3.46,-4.61 -6.91,2.31 -5.76,14.98z"/>
    <path class="fil0 str0" d="M2553.1 638.15c10.37,5.76 19.59,19.59 19.59,27.65 0,9.22 5.76,17.28 11.52,17.28 6.91,0 11.52,-3.46 11.52,-9.22 -1.15,-16.13 -32.26,-48.39 -47.24,-48.39 -11.52,1.15 -10.37,4.61 4.61,12.68l0 -0z"/>
    <path class="fil0 str0" d="M3880.44 660.04c-3.46,6.91 1.15,8.06 10.37,4.61 20.74,-8.06 24.2,-16.13 8.06,-16.13 -6.91,0 -14.98,4.61 -18.43,11.52z"/>
    <path class="fil0 str0" d="M3946.11 706.12c0,16.13 2.31,21.89 5.76,13.83 2.31,-6.91 2.31,-20.74 0,-28.8 -3.46,-6.91 -5.76,-1.15 -5.76,14.98z"/>
    <path class="fil0 str0" d="M3817.07 761.43c0,5.76 -34.57,8.06 -76.04,5.76 -59.91,-3.46 -80.65,-1.15 -96.78,13.83 -11.52,10.37 -27.65,16.13 -34.57,11.52 -18.43,-11.52 -89.87,16.13 -122.13,48.39l-29.96 29.96 129.05 -5.76c111.76,-4.61 126.74,-3.46 108.31,10.37 -11.52,8.06 -34.57,13.83 -50.7,11.52 -16.13,-2.31 -21.89,-2.31 -13.83,0 6.91,3.46 13.83,10.37 13.83,16.13 0,5.76 -43.79,10.37 -97.94,10.37 -53,0 -124.44,6.91 -157.85,13.83l-61.07 14.98 74.89 5.76c41.48,3.46 140.57,0 221.22,-5.76 148.63,-12.68 208.55,-28.8 106,-28.8 -40.33,0 -51.85,-3.46 -39.17,-11.52 9.22,-5.76 38.02,-11.52 63.37,-11.52 27.65,0 57.61,-9.22 74.89,-23.05l28.8 -21.89 -46.09 6.91c-42.63,6.91 -44.94,5.76 -26.5,-11.52 10.37,-10.37 26.5,-19.59 35.72,-19.59 9.22,0 21.89,-6.91 28.8,-14.98 9.22,-11.52 2.31,-13.83 -35.72,-10.37 -44.94,4.61 -91.02,25.35 -55.3,25.35 11.52,0 12.68,3.46 2.31,14.98 -9.22,11.52 -29.96,13.83 -84.11,6.91 -39.17,-4.61 -76.04,-5.76 -80.65,-3.46 -5.76,3.46 -20.74,2.31 -35.72,-2.31 -20.74,-6.91 -14.98,-11.52 38.02,-23.05 35.72,-8.06 67.98,-10.37 73.74,-4.61 5.76,5.76 29.96,2.31 55.3,-6.91 25.35,-9.22 58.76,-16.13 72.59,-16.13 14.98,0 28.8,-8.06 33.42,-17.28 3.46,-9.22 1.15,-17.28 -4.61,-17.28 -6.91,0 -11.52,4.61 -11.52,9.22l-0.01 0.01z"/>
    <path class="fil0 str0" d="M3920.77 794.84c-19.59,8.06 -62.22,49.54 -50.7,49.54 4.61,0 19.59,-9.22 32.26,-20.74 23.05,-18.43 23.05,-18.43 6.91,2.31 -9.22,11.52 -21.89,32.26 -28.8,46.09 -8.06,13.83 -21.89,23.05 -35.72,21.89 -11.52,-1.15 -14.98,0 -8.06,3.46 10.37,4.61 11.52,12.68 3.46,28.8 -9.22,16.13 -8.06,21.89 2.31,21.89 10.37,0 9.22,4.61 -2.31,14.98 -25.35,21.89 -78.35,42.63 -82.96,32.26 -2.31,-5.76 -65.67,-12.68 -141.72,-14.98 -86.41,-4.61 -130.2,-2.31 -115.22,3.46 16.13,8.06 9.22,9.22 -23.05,4.61 -124.44,-18.43 -178.59,-19.59 -178.59,-6.91 0,6.91 19.59,12.68 44.94,12.68 25.35,0 49.54,5.76 54.16,13.83 5.76,9.22 -12.68,10.37 -71.44,5.76 -72.59,-6.91 -82.96,-5.76 -114.07,19.59l-33.42 27.65 67.98 5.76c125.59,11.52 263.86,8.06 292.66,-6.91 21.89,-10.37 28.8,-10.37 32.26,0 5.76,14.98 70.28,8.06 89.87,-9.22 5.76,-5.76 31.11,-9.22 57.61,-9.22 25.35,1.15 35.72,4.61 23.05,6.91 -11.52,3.46 -33.42,13.83 -47.24,23.05 -21.89,13.83 -73.74,16.13 -283.44,13.83 -182.05,-2.31 -265.01,1.15 -283.44,11.52 -13.83,6.91 -25.35,14.98 -25.35,16.13 0,1.15 42.63,2.31 94.48,2.31 53,0 188.96,1.15 303.03,3.46 114.07,2.31 214.31,3.46 222.38,2.31 25.35,0 14.98,-23.05 -11.52,-24.2 -20.74,-1.15 -17.28,-4.61 12.68,-13.83 54.16,-17.28 109.46,-80.65 169.37,-198.18 27.65,-54.16 49.54,-97.94 47.24,-96.78 -1.15,0 -10.37,3.46 -19.59,6.91l-0.01 -0.01zm-253.49 215.46c0,2.31 -8.06,8.06 -18.43,11.52 -9.22,3.46 -13.83,2.31 -10.37,-4.61 6.91,-11.52 28.8,-16.13 28.8,-6.91zm49.54 3.46c-8.06,2.31 -21.89,2.31 -28.8,0 -8.06,-3.46 -2.31,-5.76 13.83,-5.76 16.13,0 21.89,2.31 14.98,5.76zm-247.72 34.57c-11.52,2.31 -32.26,2.31 -46.09,0 -14.98,-2.31 -5.76,-4.61 19.59,-4.61 25.35,-1.15 36.87,1.15 26.5,4.61zm56.46 -1.15c-3.46,3.46 -13.83,4.61 -21.89,1.15 -9.22,-3.46 -5.76,-6.91 6.91,-6.91 12.68,-1.15 19.59,2.31 14.98,5.76z"/>
    <path class="fil0 str0" d="M3419.55 890.48c-4.61,6.91 8.06,11.52 27.65,11.52 19.59,0 35.72,-5.76 35.72,-11.52 0,-6.91 -12.68,-11.52 -27.65,-11.52 -16.13,0 -32.26,4.61 -35.72,11.52z"/>
    <path class="fil0 str0" d="M3505.97 890.48c-14.98,9.22 -13.83,11.52 3.46,11.52 10.37,0 19.59,-5.76 19.59,-11.52 0,-13.83 -1.15,-13.83 -23.05,0l0 0z"/>
    <path class="fil0 str0" d="M3788.26 936.57c-3.46,5.76 1.15,11.52 10.37,11.52 10.37,0 18.43,-5.76 18.43,-11.52 0,-6.91 -4.61,-11.52 -10.37,-11.52 -6.91,0 -14.98,4.61 -18.43,11.52z"/>
    <path class="fil0 str0" d="M12297.31 1108.25c-354.88,86.41 -403.27,108.31 -364.1,167.07 12.68,19.59 32.26,28.8 76.04,34.57 96.78,12.68 103.7,26.5 103.7,202.79 0,81.81 -4.61,149.79 -10.37,149.79 -5.76,0 -28.8,-8.06 -51.85,-17.28 -23.05,-9.22 -79.5,-20.74 -124.44,-24.2 -247.72,-20.74 -447.06,124.44 -530.02,387.14 -23.05,76.04 -26.5,108.31 -25.35,265.01 0,162.46 3.46,186.66 31.11,270.77 36.87,108.31 65.67,159 132.5,229.29 76.04,79.5 157.85,115.22 267.31,115.22 110.61,0 187.81,-34.57 275.38,-122.13 42.63,-42.63 58.76,-53 58.76,-38.02 0,41.48 48.39,120.98 85.26,140.57 62.22,34.57 210.85,25.35 327.23,-19.59 106,-40.33 131.35,-61.07 126.74,-96.78 -3.46,-20.74 -12.68,-24.2 -61.07,-27.65 -91.02,-4.61 -106,-10.37 -119.83,-49.54 -9.22,-25.35 -12.68,-276.53 -12.68,-806.54 0,-748.94 -1.15,-770.83 -21.89,-782.35 -12.68,-5.76 -24.2,-11.52 -26.5,-10.37 -2.31,0 -63.37,14.98 -135.96,32.26l0 -0.01zm-243.12 677.5c66.83,49.54 70.28,69.13 70.28,443.6l0 343.36 -33.42 36.87c-28.8,32.26 -40.33,36.87 -88.72,36.87 -103.7,0 -190.11,-71.44 -231.59,-191.27 -38.02,-110.61 -40.33,-388.29 -3.46,-517.34 17.28,-61.07 72.59,-138.26 117.52,-162.46 47.24,-26.5 125.59,-20.74 169.37,10.37l0 0z"/>
    <path class="fil0 str0" d="M57.41 1130.14c-11.52,12.68 -19.59,40.33 -19.59,69.13 0,55.3 19.59,71.44 85.26,71.44 26.5,0 50.7,9.22 65.67,24.2 24.2,24.2 25.35,31.11 17.28,222.38 -3.46,108.31 -14.98,409.03 -24.2,668.28 -9.22,258.09 -20.74,482.78 -24.2,496.6 -6.91,26.5 -65.67,63.37 -99.09,63.37 -26.5,0 -55.3,39.17 -55.3,72.59 0,62.22 16.13,65.67 262.7,65.67 258.09,0 278.83,-5.76 278.83,-73.74 0,-40.33 -17.28,-53 -97.94,-71.44 -18.43,-4.61 -46.09,-18.43 -59.91,-31.11 -25.35,-21.89 -26.5,-32.26 -26.5,-191.27 0,-274.23 31.11,-930.98 42.63,-918.31 3.46,2.31 54.16,123.29 111.76,268.46 58.76,144.03 170.53,420.56 248.88,614.13 78.35,193.57 149.79,360.64 159,371.01 12.68,14.98 34.57,20.74 73.74,20.74 51.85,0 56.46,-2.31 72.59,-38.02 26.5,-58.76 414.79,-1047.36 483.93,-1235.17 12.68,-32.26 23.05,-49.54 24.2,-40.33 4.61,25.35 33.42,1034.68 31.11,1086.53 -1.15,56.46 -16.13,71.44 -81.81,88.72 -70.28,17.28 -82.96,28.8 -82.96,76.04 0,69.13 23.05,73.74 385.99,73.74 184.35,0 327.23,-4.61 339.9,-11.52 23.05,-12.68 39.17,-61.07 28.8,-92.18 -4.61,-13.83 -33.42,-29.96 -79.5,-46.09 -51.85,-17.28 -76.04,-31.11 -85.26,-51.85 -21.89,-47.24 -59.91,-822.68 -59.91,-1213.27 0,-134.81 1.15,-142.87 27.65,-169.37 16.13,-16.13 48.39,-31.11 74.89,-35.72 66.83,-10.37 84.11,-27.65 84.11,-79.5 0,-74.89 -4.61,-76.04 -330.68,-72.59l-288.05 3.46 -20.74 40.33c-10.37,21.89 -74.89,179.74 -140.57,351.42 -208.55,535.78 -288.05,731.65 -294.96,731.65 -3.46,0 -17.28,-27.65 -31.11,-61.07 -20.74,-53 -125.59,-309.94 -353.73,-866.46 -35.72,-88.72 -73.74,-170.53 -84.11,-182.05 -16.13,-17.28 -43.79,-19.59 -278.83,-19.59 -238.51,0 -262.7,2.31 -279.99,20.74l-0.01 0.01z"/>
    <path class="fil0 str0" d="M7408.49 1130.14c-24.2,26.5 -25.35,58.76 -2.31,89.87 11.52,18.43 33.42,26.5 81.81,31.11 77.2,8.06 95.63,23.05 109.46,91.02 13.83,73.74 12.68,1250.15 -1.15,1301.99 -14.98,53 -42.63,73.74 -124.44,91.02 -48.39,11.52 -64.53,20.74 -72.59,41.48 -14.98,40.33 -12.68,67.98 8.06,88.72 14.98,16.13 69.13,18.43 419.4,18.43l402.12 0 31.11 -27.65c28.8,-24.2 31.11,-31.11 20.74,-65.67 -9.22,-34.57 -17.28,-39.17 -62.22,-47.24 -183.2,-33.42 -177.44,-19.59 -182.05,-398.66l-3.46 -304.18 161.31 4.61c160.16,3.46 161.31,3.46 197.03,38.02 23.05,21.89 43.79,59.91 58.76,108.31 12.68,41.48 28.8,79.5 36.87,84.11 19.59,12.68 74.89,11.52 101.39,-2.31 20.74,-11.52 21.89,-27.65 21.89,-308.79 0,-215.46 -3.46,-300.73 -13.83,-311.1 -14.98,-14.98 -76.04,-18.43 -97.94,-4.61 -8.06,4.61 -21.89,33.42 -31.11,62.22 -20.74,71.44 -59.91,123.29 -106,142.87 -25.35,10.37 -85.26,16.13 -183.2,16.13l-144.03 0 0 -299.57 0 -299.57 205.09 0c112.92,0 224.68,5.76 250.03,12.68 63.37,17.28 122.13,84.11 164.76,184.35l34.57 85.26 53 3.46c67.98,4.61 104.85,-27.65 94.48,-81.81 -3.46,-20.74 -11.52,-101.39 -19.59,-180.9 -6.91,-79.5 -17.28,-153.24 -23.05,-164.76 -10.37,-18.43 -55.3,-19.59 -689.02,-19.59 -641.78,0 -678.65,1.15 -695.93,20.74l0.01 -0z"/>
    <path class="fil0 str0" d="M2260.44 1196.97l-27.65 31.11 28.8 -16.13c16.13,-8.06 38.02,-14.98 48.39,-16.13 11.52,-1.15 24.2,-5.76 28.8,-11.52 5.76,-4.61 -3.46,-4.61 -18.43,0 -18.43,5.76 -24.2,4.61 -19.59,-4.61 16.13,-24.2 -12.68,-12.68 -40.33,17.28z"/>
    <path class="fil0 str0" d="M4829.86 1319.1c-29.96,72.59 -124.44,199.33 -182.05,245.42 -32.26,25.35 -95.63,62.22 -141.72,81.81l-84.11 34.57 1.15 44.94c2.31,57.61 26.5,74.89 109.46,74.89l66.83 0 3.46 411.34c3.46,394.05 4.61,414.79 29.96,475.86 26.5,69.13 87.57,134.81 152.09,167.07 95.63,48.39 314.55,42.63 429.77,-11.52 59.91,-28.8 180.9,-139.42 180.9,-164.76 0,-6.91 -9.22,-23.05 -20.74,-38.02l-21.89 -25.35 -39.17 28.8c-109.46,82.96 -241.96,88.72 -294.96,11.52 -18.43,-28.8 -20.74,-66.83 -24.2,-443.6l-3.46 -411.34 177.44 0c202.79,0 215.46,-4.61 218.92,-77.2 2.31,-80.65 -4.61,-84.11 -212.01,-84.11l-183.2 0 0 -164.76c0,-112.92 -4.61,-169.37 -13.83,-178.59 -8.06,-8.06 -40.33,-13.83 -73.74,-13.83 -56.46,0 -59.91,2.31 -74.89,36.87z"/>
    <path class="fil0 str0" d="M2728.23 1612.91c-18.43,3.46 -300.73,74.89 -409.03,102.55 -93.33,25.35 -93.33,123.29 1.15,138.26 25.35,4.61 57.61,17.28 71.44,27.65 23.05,19.59 24.2,31.11 33.42,410.19 8.06,365.25 6.91,392.9 -11.52,418.25 -11.52,16.13 -35.72,33.42 -55.3,39.17 -18.43,5.76 -40.33,16.13 -47.24,23.05 -18.43,13.83 -19.59,79.5 -1.15,97.94 10.37,10.37 97.94,13.83 322.62,13.83 298.42,0 308.79,-1.15 320.31,-23.05 6.91,-13.83 11.52,-40.33 9.22,-61.07 -2.31,-28.8 -10.37,-38.02 -38.02,-47.24 -74.89,-21.89 -96.78,-32.26 -106,-50.7 -4.61,-11.52 -11.52,-256.94 -14.98,-548.45 -5.76,-516.19 -5.76,-528.86 -28.8,-536.93 -12.68,-3.46 -33.42,-5.76 -46.09,-3.46z"/>
    <path class="fil0 str0" d="M3344.66 1638.26c-41.48,11.52 -126.74,34.57 -190.11,51.85 -112.92,29.96 -155.55,56.46 -155.55,94.48 0,27.65 44.94,62.22 79.5,62.22 63.37,0 64.53,2.31 67.98,443.6 3.46,452.82 10.37,415.95 -82.96,460.88 -50.7,25.35 -65.67,63.37 -41.48,109.46 11.52,21.89 21.89,23.05 322.62,23.05 300.73,0 311.1,-1.15 322.62,-23.05 6.91,-13.83 11.52,-40.33 9.22,-61.07 -3.46,-32.26 -10.37,-39.17 -49.54,-51.85 -84.11,-27.65 -80.65,-5.76 -80.65,-434.38l0 -383.69 28.8 -31.11c42.63,-46.09 84.11,-63.37 153.24,-63.37 51.85,0 65.67,4.61 89.87,31.11 56.46,62.22 58.76,81.81 70.28,456.27 12.68,402.12 13.83,396.36 -73.74,425.16 -62.22,20.74 -80.65,61.07 -50.7,106l18.43 29.96 326.07 0c238.51,0 329.53,-3.46 339.9,-13.83 19.59,-19.59 17.28,-85.26 -4.61,-106 -9.22,-10.37 -29.96,-18.43 -44.94,-18.43 -43.79,0 -84.11,-19.59 -100.24,-48.39 -10.37,-19.59 -16.13,-131.35 -21.89,-412.49 -5.76,-330.68 -9.22,-395.21 -27.65,-445.9 -27.65,-81.81 -85.26,-145.18 -164.76,-184.35 -59.91,-28.8 -76.04,-32.26 -186.66,-31.11 -104.85,0 -131.35,4.61 -195.87,31.11 -41.48,17.28 -102.55,49.54 -134.81,71.44 -33.42,23.05 -61.07,39.17 -61.07,35.72 0,-2.31 -5.76,-31.11 -11.52,-65.67 -17.28,-87.57 -26.5,-91.02 -149.79,-57.61l0 -0z"/>
    <path class="fil0 str0" d="M5871.45 1633.65c-288.05,62.22 -471.25,334.14 -448.21,663.67 20.74,297.27 178.59,500.06 448.21,571.5 99.09,26.5 323.77,25.35 417.1,-1.15 153.24,-44.94 298.42,-155.55 366.4,-279.99 71.44,-132.5 96.78,-350.27 59.91,-508.12 -54.16,-226.98 -229.29,-396.36 -464.34,-445.9 -95.63,-20.74 -284.59,-20.74 -379.08,0zm260.4 126.74c112.92,57.61 175.13,258.09 177.44,576.1 3.46,236.2 -24.2,341.05 -99.09,385.99 -86.41,53 -207.4,11.52 -269.62,-91.02 -57.61,-95.63 -84.11,-231.59 -84.11,-428.62 0,-248.88 38.02,-388.29 118.68,-436.69 43.79,-27.65 111.76,-29.96 156.7,-5.76l0 -0z"/>
    <path class="fil0 str0" d="M9226.68 1630.2c-102.55,18.43 -214.31,81.81 -286.9,160.16 -119.83,129.05 -161.31,246.57 -161.31,453.97 1.15,118.68 5.76,152.09 32.26,232.75 57.61,176.29 180.9,313.4 334.14,371.01 92.18,34.57 239.66,48.39 361.79,34.57 123.29,-13.83 254.64,-71.44 344.51,-153.24 182.05,-164.76 232.75,-542.69 106,-799.63 -72.59,-148.63 -244.27,-275.38 -407.88,-301.88 -84.11,-13.83 -244.27,-12.68 -322.62,2.31l-0 0zm250.03 141.72c93.33,63.37 148.63,267.31 150.94,558.82 2.31,244.27 -24.2,346.81 -99.09,391.75 -46.09,28.8 -103.7,28.8 -163.61,1.15 -82.96,-36.87 -132.5,-119.83 -168.22,-283.44 -20.74,-95.63 -20.74,-419.4 0,-495.45 23.05,-81.81 66.83,-159 102.55,-182.05 47.24,-28.8 126.74,-25.35 177.44,9.22z"/>
    <path class="fil0 str0" d="M10522.91 1634.8c-273.07,71.44 -426.32,291.51 -426.32,609.52 1.15,324.92 147.48,541.54 420.56,623.34 103.7,31.11 309.94,27.65 409.03,-5.76 190.11,-65.67 315.7,-205.09 362.95,-406.73 21.89,-93.33 21.89,-282.29 0,-376.77 -39.17,-165.92 -165.92,-335.29 -298.42,-397.51 -130.2,-62.22 -332.99,-81.81 -467.8,-46.09zm252.33 138.27c47.24,40.33 99.09,150.94 124.44,269.62 28.8,135.96 28.8,483.93 1.15,576.1 -26.5,86.41 -62.22,117.52 -138.26,123.29 -117.52,8.06 -193.57,-70.28 -241.96,-250.03 -34.57,-124.44 -42.63,-414.79 -14.98,-538.08 34.57,-159 78.35,-209.7 180.9,-210.85 41.48,0 61.07,6.91 88.72,29.96l-0 0z"/>
    <path class="fil0 str0" d="M5326.46 3220.24c-3.46,3.46 -91.02,9.22 -195.87,12.68 -447.06,17.28 -619.89,28.8 -1117.64,71.44 -473.56,41.48 -657.91,62.22 -1060.03,122.13 -245.42,35.72 -858.39,157.85 -848.02,168.22 2.31,3.46 92.18,-8.06 199.33,-25.35 426.32,-66.83 937.9,-126.74 1472.52,-172.83 108.31,-9.22 222.38,-19.59 253.49,-23.05 101.39,-9.22 612.98,-39.17 903.33,-51.85 405.58,-18.43 1235.17,-14.98 1660.33,5.76 679.8,33.42 1169.49,70.28 1906.9,144.03 1123.4,112.92 1293.93,124.44 1866.58,118.68 140.57,-1.15 275.38,-6.91 299.57,-12.68 34.57,-8.06 4.61,-10.37 -109.46,-9.22 -85.26,0 -215.46,-3.46 -288.05,-8.06 -72.59,-4.61 -182.05,-10.37 -241.96,-13.83 -101.39,-5.76 -305.33,-23.05 -616.43,-51.85 -149.79,-13.83 -709.76,-73.74 -916,-97.94 -79.5,-9.22 -235.05,-25.35 -345.66,-34.57 -110.61,-10.37 -299.57,-28.8 -420.56,-40.33 -312.25,-32.26 -452.82,-42.63 -927.52,-69.13 -385.99,-21.89 -1461,-44.94 -1474.83,-32.26l-0.01 0z"/>
    <path class="fil0 str0" d="M10728 3560.14c6.91,2.31 20.74,2.31 28.8,0 6.91,-3.46 1.15,-5.76 -14.98,-5.76 -16.13,0 -21.89,2.31 -13.83,5.76z"/>
   </g>
  </g>
 </g>
</svg>
