<?xml version="1.0" encoding="UTF-8"?>
<!DOCTYPE svg PUBLIC "-//W3C//DTD SVG 1.1//EN" "http://www.w3.org/Graphics/SVG/1.1/DTD/svg11.dtd">
<!-- Creator: CorelDRAW -->
<svg xmlns="http://www.w3.org/2000/svg" xml:space="preserve" width="146.584mm" height="31.2235mm" version="1.1" style="shape-rendering:geometricPrecision; text-rendering:geometricPrecision; image-rendering:optimizeQuality; fill-rule:evenodd; clip-rule:evenodd"
viewBox="0 0 8239.9 1755.16"
 xmlns:xlink="http://www.w3.org/1999/xlink"
 xmlns:xodm="http://www.corel.com/coreldraw/odm/2003">
 <defs>
  <style type="text/css">
   <![CDATA[
    .str1 {stroke:#F6FCED;stroke-width:0.2;stroke-miterlimit:22.9256}
    .str0 {stroke:#3A4D16;stroke-width:4.28;stroke-miterlimit:22.9256}
    .fil0 {fill:#1B472C;fill-rule:nonzero}
    .fil1 {fill:#1B472C}
   ]]>
  </style>
 </defs>
 <g id="Слой_x0020_1">
  <metadata id="CorelCorpID_0Corel-Layer"/>
  <g id="_2347955200800">
   <path class="fil0 str0" d="M301.51 736.97c25.85,-42.26 50.83,-83.92 75.29,-124.74 24.45,-40.82 49.74,-79.25 75.29,-115.67 9.31,-13.26 17.71,-26.36 25.1,-40.82 3.86,-7.56 8.05,-13.99 12.55,-19.28 4.5,-5.28 7.96,-12.13 12.55,-19.28l106.18 -165.56c-15.45,-18.14 -31.21,-30.24 -47.3,-36.29 -16.09,-6.05 -35.07,-9.07 -56.95,-9.07 -29.61,0 -59.14,3.39 -88.81,9.07 -34.64,6.63 -69.26,13.74 -104.25,18.15 -11.49,1.44 -17.38,-5.3 -17.38,-15.88 0,-7.56 2.5,-12.99 7.72,-15.87 16.65,-9.21 38.61,-20.03 65.63,-32.88 55.32,-26.31 113.89,-48.87 172.78,-65.77 28.96,-8.31 53.09,-12.47 72.4,-12.47 55.95,0 114.71,9.36 144.79,62.37 11.59,20.41 18.99,45.73 22.2,75.97 6.23,58.64 4.82,117.99 4.82,176.91 0,90.97 -3.78,181.67 -13.51,272.15 -20,185.96 -39.02,372.05 -59.84,557.92 -4.75,42.38 -8.36,81.27 -9.65,116.8 -1.29,35.53 -0.85,73.73 -1.93,114.53 -0.2,7.67 -1.28,13.99 0,19.28 1.28,5.29 2.28,11.03 3.86,17.01 4.04,15.36 19.13,36.29 36.68,36.29 12.87,0 29.68,-16.59 50.2,-49.9 50.27,-81.6 95.88,-164.81 137.06,-249.47 41.19,-84.67 82.07,-170.71 121.63,-258.55 29.62,-65.77 58.89,-131.69 88.81,-197.32 29.06,-63.75 58.24,-125.5 85.9,-185.97 27.67,-60.48 58.53,-121.17 93.63,-181.44 15.09,-25.91 32.18,-54.05 50.2,-85.05 36.47,-62.73 76.9,-124.26 121.62,-181.44 27.75,-35.48 83.18,-101.54 129.35,-107.73 11.48,-1.53 18.66,5.29 21.24,15.87 2.57,10.58 3.86,21.17 3.86,31.75 0,14.67 1.54,22.53 -5.8,36.29 -4.91,9.2 -13.1,39.41 -25.09,90.72 -6.03,25.8 -12.56,54.05 -18.34,85.05 -5.8,30.99 -11.91,65.4 -18.34,103.2 -13.81,81.07 -30.28,161.63 -44.4,242.67 -28.72,164.77 -53.12,330.41 -71.44,496.69 -10.12,91.86 -13.51,184.33 -13.51,276.7 0,9.07 0.33,24.19 0.97,45.35 1.15,37.83 6,81.59 20.27,116.8 6.44,15.87 16.09,23.81 28.96,23.81 27.62,0 42.55,-19.35 61.77,-35.16 6.43,-5.29 12.87,-11.72 19.31,-19.28 11.28,-13.26 22.64,-25.99 34.75,-38.55 9.65,-10.01 19.3,-15.88 30.89,-15.88 5.14,0 7.72,3.78 7.72,11.34 0,18.15 -5.79,36.67 -17.37,55.57 -23.48,38.3 -59.84,70.85 -99.43,91.85 -19.94,10.58 -37.64,15.87 -53.09,15.87 -63.07,0 -109.08,-17.38 -138.04,-52.16 -28.95,-34.77 -43.98,-86.97 -47.3,-156.49 -2.01,-42.3 -3.86,-84.66 -3.86,-127.01 0,-34.77 3.86,-79.37 11.58,-133.8 8.36,-59.01 15.31,-118.09 25.1,-176.91 10.58,-63.6 20.29,-127.24 32.82,-190.51 11.8,-59.61 21.85,-119.42 32.82,-179.17 8.74,-47.61 16.19,-95.34 25.09,-142.88 4.77,-25.44 9.66,-53.41 9.66,-79.38l-23.17 0c-10.3,6.04 -27.3,29.33 -50.19,70.31 -31.16,55.79 -59.85,113.4 -86.88,172.37 -27.03,58.97 -53.39,117.95 -79.15,176.9 -47.59,108.87 -95.57,216.59 -143.83,323.18 -48.26,106.59 -100.28,211.53 -157.33,314.12 -6.02,10.82 -15.77,26.46 -27.99,47.63 -12.23,21.16 -25.74,41.96 -40.54,62.37 -14.8,20.41 -29.92,38.18 -45.37,53.3 -15.44,15.12 -29.6,22.68 -42.47,22.68 -65.63,0 -112.29,-19.28 -139.96,-57.83 -27.67,-38.56 -41.51,-93.37 -41.51,-164.43 0,-63.5 5.05,-136.95 17.38,-219.99 12.45,-83.89 24.36,-167.84 36.68,-251.75 12.53,-85.39 23.7,-170.95 36.68,-256.28 6.44,-42.33 10.62,-83.16 12.55,-122.47 1.92,-39.3 2.89,-76.35 2.89,-111.13 0,-25.71 -0.97,-54.06 -2.89,-85.05 -1.93,-31 -6.12,-58.59 -12.55,-82.78 -47.83,84.27 -97.3,167.29 -148.65,249.47 -33.86,54.18 -71.11,117.93 -112.94,190.51 -41.83,72.58 -81.08,148.56 -117.76,227.93 -36.68,79.38 -67.57,159.14 -92.67,239.27 -25.1,80.13 -37.65,155.74 -37.65,226.8 0,33.26 5.15,61.23 15.45,83.91 10.29,22.68 24.28,45.5 42.46,68.05l34.75 43.09c1.25,1.54 1.93,3.78 1.93,6.8 0,16.63 -7.73,31.75 -23.17,45.36 -15.44,13.6 -30.24,20.41 -44.4,20.41 -34.75,0 -62.42,-3.4 -83.01,-10.2 -44.82,-14.81 -62.75,-48.11 -68.53,-92.99 -12.68,-98.41 0.03,-200.53 25.1,-295.97 18.66,-71.06 42.47,-141.38 71.43,-210.93 28.96,-69.55 60.81,-136.84 95.56,-201.85 34.75,-65.02 68.98,-124.67 102.32,-179.17zm1413.16 802.87c1.97,-40.96 10.94,-83.92 21.24,-129.28 20.48,-90.26 51.78,-178.04 90.73,-261.95 19.3,-41.58 39.26,-79.75 59.86,-114.53 -14.16,0 -26.19,3.38 -36.69,9.07 -6.25,3.39 -12.54,6.81 -18.34,11.34 -5.79,4.53 -12.09,7.95 -18.34,11.34 -10.48,5.69 -21.24,13.23 -32.82,21.54 -11.58,8.31 -22.52,12.48 -32.82,12.48 -9.01,0 -14.15,-3.02 -15.44,-9.07 10.29,-21.17 20.86,-33.45 30.88,-38.56 30.78,-15.71 59.09,-38.42 84.95,-61.23 13.24,-11.69 32.18,-24.95 57.91,-38.56 25.75,-13.6 47.02,-21.56 63.71,-20.42 5.35,0.37 10.62,1.89 16.41,1.14 30.21,-3.95 53.09,0.35 53.09,37.42 0,7.56 -3.87,17.39 -11.59,29.49 -7.72,12.09 -12.87,21.17 -15.44,27.21 -2.57,6.05 -6.12,11.72 -10.62,17.01 -4.51,5.29 -7.8,10.36 -10.62,14.74 -44.8,69.7 -77.87,147.8 -98.46,234.74 -20.59,86.93 -30.88,173.5 -30.88,259.68 0,16.63 7.08,31.75 21.23,45.36 14.16,13.61 28.31,20.41 42.47,20.41 11.41,0 20.71,-4.41 30.89,-9.07l34.75 -15.87c7.54,-3.45 18.02,-7.57 30.89,-13.61 12.87,-6.04 23.81,-9.07 32.82,-9.07 2.57,0 3.86,3.78 3.86,11.34 0,9.07 -1.93,15.12 -5.79,18.15 -6.84,11.02 -29.19,22.42 -40.54,29.48l-32.82 20.41c-22.81,14.19 -47.62,24.95 -73.36,34.02 -25.74,9.07 -51.48,13.61 -77.21,13.61 -36.04,0 -64.04,-16.63 -83.98,-49.89 -19.95,-33.27 -31.81,-69.6 -29.92,-108.86zm401.55 61.23l3.86 -6.8c15.45,-27.22 31.22,-63.13 47.3,-107.73 16.09,-44.6 30.89,-91.85 44.41,-141.75 13.51,-49.89 25.09,-99.04 34.75,-147.42 9.65,-48.38 15.23,-89.96 16.41,-124.74 0.1,-3.02 -4.51,-4.54 -13.51,-4.54 -11.97,0 -23.82,0.42 -35.72,-1.13 -5.79,-0.75 -9.97,-4.91 -12.55,-12.47 10.12,-11.93 28.67,-23.87 42.47,-30.62 7.72,-3.78 16.3,-7.57 25.1,-12.47 16.62,-9.27 33.19,-18.66 50.19,-27.22 9.01,-4.53 16.41,-7.94 22.2,-10.2 5.79,-2.27 10.92,-5.6 16.41,-7.94 8.74,-3.73 18.45,-8.61 28.96,-15.87 11.38,-7.86 23.81,-11.34 36.68,-11.34 9.01,0 13.51,5.29 13.51,15.87 0,6.05 -1.45,10.46 -3.86,13.61 -9.17,11.97 -17.38,30.24 -25.1,54.43 -7.72,24.19 -13.65,44.58 -17.38,61.24 -2.7,12.06 -5.79,23.44 -9.65,34.01 -6.71,18.39 -10.84,36.65 -15.44,55.57 -1.29,5.28 -2.57,9.44 -3.86,12.47 5.15,0 17.84,-11.51 38.61,-34.03 12.7,-13.76 29.61,-31.37 50.2,-53.3 39.9,-42.48 86.11,-83.24 136.1,-113.4 23.81,-14.36 44.72,-21.55 62.74,-21.55l19.3 0c42.47,0 75.93,12.1 100.39,36.29 24.45,24.19 36.68,62 36.68,113.4l0 18.14c0,39.39 -9.34,78.25 -20.28,116.8 -10.93,38.55 -24.74,74.74 -37.64,109.99 -13.49,36.85 -25.95,74 -38.61,111.13 -12.72,37.31 -21.07,73.95 -23.17,113.4 -0.48,9.06 1.61,20.41 4.83,34.02 3.22,13.6 10.02,21.33 20.26,20.41 23.27,-2.1 41.83,-6.43 55.99,-10.21 14.15,-3.78 30.25,-16.25 48.26,-37.42 6.43,-7.56 14.15,-11.34 23.17,-11.34 3.86,0 5.94,0.77 5.79,2.27 -2.42,24.21 -13.83,43.86 -33.78,58.97 -41.72,31.63 -98.05,48.66 -149.62,54.43 -27.02,3.02 -49.55,4.54 -67.57,4.54 -29.61,0 -44.4,-21.17 -44.4,-63.51 0,-44.55 8.52,-88.97 21.24,-131.54 12.05,-40.34 24.69,-80.47 38.61,-120.2 26.68,-76.17 52.92,-156.94 55.99,-238.14 1.03,-27.14 0.62,-57.99 -14.48,-81.65 -9.65,-15.12 -27.35,-22.68 -53.09,-22.68 -19.31,0 -42.15,11.35 -68.53,34.03 -26.38,22.68 -52.45,50.28 -78.19,82.78 -25.74,32.5 -49.23,66.15 -70.46,100.92 -21.23,34.77 -37.29,63.37 -47.3,86.18 -19.86,45.21 -30.55,92.63 -45.36,139.48 -8.36,26.46 -18.02,52.92 -28.96,79.38 -10.93,26.46 -23.17,50.27 -36.68,71.44 -13.51,21.17 -27.9,35.02 -43.44,40.83 -20.18,7.54 -40.05,13.96 -59.85,22.68 -14.09,6.21 -25.1,9.07 -32.82,9.07 -5.15,0 -7.72,-3.02 -7.72,-9.07 0,-6.05 2.89,-17.39 8.69,-34.02 5.79,-16.63 15.44,-37.98 29.92,-63.5zm801.17 -505.76c21.88,-21.17 46.01,-39.7 72.39,-55.57 26.38,-15.87 52.64,-30.27 78.19,-44.22 29.79,-16.28 60.74,-32 92.67,-47.63 29.85,-14.61 61.13,-27.21 94.59,-36.29 38.73,-61.74 83.55,-120.26 129.35,-176.9 53.17,-65.74 107.37,-130.66 162.17,-195.05l38.61 0 -55.99 95.26c-2.51,4.28 -6.68,7.38 -9.65,11.34 -55.61,74.14 -106.14,152.43 -146.72,235.87 12.65,-2.98 25.65,-5.55 38.61,-4.54 6.59,0.51 13.19,1.89 20.27,1.14 7.08,-0.76 13.83,-1.14 20.27,-1.14l57.92 0c20.71,0 41.06,2.27 61.78,2.27 14.16,0 30.57,-1.51 49.23,-4.54 38.62,-6.26 77.1,-14.94 113.9,-28.35 18.66,-6.8 33.66,-14.91 45.37,-23.82 10.16,-7.72 15.45,-9.82 15.45,-6.8l0 2.27c-1.29,3.03 -1.93,5.3 -1.93,6.81 -6.44,21.17 -22.2,41.96 -47.3,62.37 -25.09,20.41 -53.73,38.19 -85.91,53.3 -32.17,15.12 -64.35,27.22 -96.52,36.29 -32.18,9.07 -59.21,13.61 -81.09,13.61 -43.44,0 -86.88,0 -130.31,0 -10.94,0 -20.92,-0.76 -29.92,-2.27 -12.51,29.38 -23.77,59.25 -36.68,88.45 -21.47,48.56 -40.87,98.28 -56.95,149.68 -16.08,51.41 -24.13,105.08 -24.13,161.03 0,21.16 1.28,44.6 3.86,70.31 4.45,44.46 16.99,93.61 48.27,127.01 14.15,15.12 33.46,22.68 57.91,22.68 24.45,0 51.49,-8.31 81.09,-24.95 62.68,-35.21 117.05,-90.1 158.31,-148.55 21.88,-31 36.28,-60.97 44.4,-89.59 2.18,-7.68 9.01,-11.34 19.3,-11.34 4.41,0 20.52,2.96 19.31,9.07 -8.43,42.45 -25.74,85.43 -50.19,129.27 -46.04,82.55 -111.01,154.36 -194.02,200.72 -39.25,21.92 -78.83,32.89 -118.73,32.89 -36.04,0 -67.25,-7.2 -93.63,-21.55 -91.96,-50.06 -116.8,-160.5 -116.8,-257.41 0,-63.51 10.94,-120.96 32.82,-172.37 21.88,-51.41 47.52,-101.36 77.23,-149.68 19.17,-31.2 36.62,-63.07 54.05,-95.26l0 -22.68c-51.49,18.15 -100.07,38.18 -145.76,60.11 -45.68,21.92 -92.99,46.49 -141.89,73.71 -1.29,-1.51 -3.22,-3.02 -5.8,-4.54 -2.57,-1.51 -5.14,-3.78 -7.72,-6.8 -6.43,-7.56 -9.65,-12.1 -9.65,-13.61zm1177.63 -197.31l1.93 15.87c-84.94,63.5 -149.94,137.59 -194.99,222.26 -45.04,84.67 -67.57,185.97 -67.57,303.91 0,39.31 7.4,72.58 22.2,99.79 14.8,27.21 40.22,40.82 76.25,40.82 25.75,0 49.23,-7.18 70.47,-21.54 45.63,-30.87 79.47,-76.63 105.21,-124.74 14.15,-26.46 25.74,-51.03 34.75,-73.71 -43.76,-3.02 -81.09,-17.01 -111.97,-41.96 -30.88,-24.94 -46.33,-65.39 -46.33,-121.34 0,-30.24 5.15,-57.83 15.45,-82.78 29.11,-70.58 89.34,-121.34 167.96,-121.34 29.6,0 49.22,12.86 58.87,38.56 9.66,25.7 14.49,52.92 14.49,81.65 0,34.77 -3.86,69.17 -11.59,103.19 -7.72,34.02 -17.38,67.66 -28.96,100.92 33.46,-3.02 64.68,-12.1 93.63,-27.21 28.96,-15.12 58.24,-31 87.84,-47.63 6.44,0 9.65,3.02 9.65,9.07 0,19.65 -8.68,36.29 -26.06,49.89 -17.37,13.6 -37.65,24.95 -60.81,34.02 -23.17,9.07 -46.34,15.88 -69.5,20.41 -23.16,4.54 -40.54,6.8 -52.13,6.8 -11.57,30.24 -27.35,63.51 -47.29,99.79 -19.95,36.29 -42.48,70.31 -67.57,102.05 -25.09,31.75 -52.76,58.21 -83.01,79.38 -30.25,21.16 -61.46,31.75 -93.63,31.75 -60.49,0 -107.47,-23.05 -140.93,-69.18 -33.46,-46.11 -50.19,-103.19 -50.19,-171.23 0,-63.5 10.94,-124.74 32.82,-183.7 21.88,-58.97 51.16,-112.26 87.84,-159.89 68.33,-88.72 163.55,-164.94 273.17,-193.91zm65.64 419.57c11.59,-30.24 21.24,-62 28.96,-95.25 7.72,-33.27 11.58,-66.53 11.58,-99.79 0,-19.66 -2.57,-39.32 -7.72,-58.97 -5.15,-19.65 -18.02,-29.48 -38.61,-29.48 -25.74,0 -46.01,13.6 -60.81,40.82 -14.8,27.21 -24.55,53.59 -26.07,79.38 -1.06,18.11 1.29,36.67 3.86,55.57 4.64,34.04 16.9,66.62 43.44,89.58 12.23,10.58 27.35,16.63 45.37,18.15zm857.16 351.54c22.33,2.95 38.73,-6.87 57.92,-15.88 6.44,-3.02 11.59,-9.07 15.45,-18.15 1.28,-3.01 3.22,-6.8 5.78,-11.33 7.34,-12.93 13.52,-26.45 20.28,-39.69 12.54,-24.57 25.58,-48.92 37.64,-73.71 5.15,-10.58 8.36,-16.63 9.65,-18.14 39.17,-116.57 76.04,-233.93 111.98,-351.54 -27.03,-7.56 -57.6,-22.3 -91.71,-44.22 -34.11,-21.92 -66.28,-48.01 -96.52,-78.24 -30.25,-30.24 -55.35,-63.51 -75.3,-99.79 -19.94,-36.28 -29.92,-73.34 -29.92,-111.13 0,-63.5 10.3,-121.34 30.88,-173.5 41.36,-104.75 111.1,-193.09 200.78,-260.82 88.31,-66.7 188.02,-119.79 291.51,-158.76 50.19,-18.89 97.82,-33.64 142.86,-44.23 9.02,-10.58 17.24,-26.51 25.1,-47.62 10.15,-27.27 23.49,-54.06 39.57,-80.51 16.09,-26.46 38.29,-39.69 66.6,-39.69 6.44,0 10.94,3.78 13.51,11.34 2.57,7.56 3.86,14.36 3.86,20.41 0,12.1 -5.79,25.7 -17.38,40.82 -11.57,15.12 -20.59,26.47 -27.02,34.02 -5.14,6.05 -7.72,13.61 -7.72,22.68 20.59,-7.56 44.72,-13.99 72.4,-19.28 27.67,-5.29 56.63,-9.45 86.87,-12.47 54.6,-5.46 110.19,-10.21 165.06,-9.07 18.07,0.37 34.43,1.89 49.23,1.13 14.8,-0.75 28.63,-1.13 41.5,-1.13 41.18,0 71.76,15.87 91.71,47.62 19.94,31.75 31.65,69.53 33.78,113.4 0.44,9.06 -5.79,13.61 -17.38,13.61 -10.29,0 -25.41,-1.89 -45.36,-5.67 -19.94,-3.78 -43.94,-10.02 -72.4,-17.01 -57.77,-14.18 -130.64,-20.41 -218.15,-20.41 -14.16,0 -32.5,0.38 -55.02,1.14 -46.48,1.56 -94.14,5.69 -139.96,13.6 -21.88,3.78 -39.25,9.46 -52.12,17.02 -30.89,60.48 -55.99,123.61 -75.29,189.38 -19.3,65.77 -36.83,132.8 -54.06,200.71 -26.62,104.88 -49.41,210.87 -73.36,316.38 -7.72,34.02 -16.08,67.66 -25.09,100.92 74.65,-7.56 148.01,-24.2 220.07,-49.89 72.08,-25.7 139.6,-62.82 202.71,-111.13 21.82,-16.7 40.54,-24.95 55.98,-24.95 19.3,0 28.96,18.15 28.96,54.43 0,18.15 -2.89,35.53 -8.68,52.17 -5.79,16.63 -16.09,29 -29.92,38.56 -51.91,35.86 -105.49,69.19 -165.06,90.72 -56.61,20.46 -114.92,26.53 -174.71,29.48 -21.91,1.08 -45.7,2.65 -71.43,3.4 -25.74,0.76 -53.41,1.89 -83.02,3.41 -31.23,110 -71.72,218.93 -123.56,320.92 -25.74,50.65 -55.02,98.66 -87.84,144.02 -32.81,45.35 -69.21,85.38 -109.07,120.2 -10.34,9.02 -21.56,14.74 -33.79,17.01 -12.23,2.27 -24.77,3.4 -37.64,3.4 -14.16,0 -28,-3.78 -41.51,-11.34 -13.51,-7.56 -22.65,-20.29 -24.13,-38.56 -1.1,-13.56 4.51,-22.69 13.51,-27.22 9.01,-4.54 18.76,-8.16 28.96,-6.8zm287.65 -621.43c50.82,-155.22 99.7,-311.05 154.44,-464.93 17.3,-48.65 38.29,-101.68 60.82,-159.9 22.52,-58.2 46.65,-109.24 72.39,-153.08 -1.29,-1.51 -3.91,-2.85 -7.73,-2.27 -55.43,8.49 -111.97,24.96 -169.88,47.63 -57.91,22.68 -111.01,53.3 -159.27,91.85 -48.26,38.56 -87.84,85.81 -118.73,141.75 -30.88,55.94 -46.33,122.47 -46.33,199.58 0,31.75 6.44,63.51 19.3,95.26 25.25,62.28 67.03,118.13 119.69,159.89 25.74,20.41 50.84,35.16 75.29,44.22zm1077.24 -149.68l1.93 15.87c-84.94,63.5 -149.94,137.59 -194.98,222.26 -45.05,84.67 -67.57,185.97 -67.57,303.91 0,39.31 7.4,72.58 22.2,99.79 14.8,27.21 40.22,40.82 76.25,40.82 25.75,0 49.23,-7.18 70.47,-21.54 45.64,-30.87 79.47,-76.63 105.21,-124.74 14.15,-26.46 25.75,-51.03 34.75,-73.71 -43.76,-3.02 -81.09,-17.01 -111.97,-41.96 -30.88,-24.94 -46.34,-65.39 -46.34,-121.34 0,-30.24 5.15,-57.83 15.45,-82.78 29.11,-70.58 89.34,-121.34 167.95,-121.34 29.6,0 49.23,12.86 58.88,38.56 9.65,25.7 14.48,52.92 14.48,81.65 0,34.77 -3.86,69.17 -11.59,103.19 -7.72,34.02 -17.37,67.66 -28.96,100.92 33.46,-3.02 64.68,-12.1 93.63,-27.21 28.96,-15.12 58.24,-31 87.84,-47.63 6.44,0 9.65,3.02 9.65,9.07 0,19.65 -8.69,36.29 -26.07,49.89 -17.37,13.6 -37.65,24.95 -60.81,34.02 -23.17,9.07 -46.33,15.88 -69.5,20.41 -23.17,4.54 -40.54,6.8 -52.13,6.8 -11.58,30.24 -27.35,63.51 -47.3,99.79 -19.94,36.29 -42.47,70.31 -67.57,102.05 -25.09,31.75 -52.76,58.21 -83.01,79.38 -30.24,21.16 -61.45,31.75 -93.63,31.75 -60.49,0 -107.47,-23.05 -140.93,-69.18 -33.46,-46.11 -50.2,-103.19 -50.2,-171.23 0,-63.5 10.94,-124.74 32.82,-183.7 21.88,-58.97 51.16,-112.26 87.84,-159.89 68.33,-88.72 163.55,-164.94 273.17,-193.91zm65.64 419.57c11.59,-30.24 21.24,-62 28.96,-95.25 7.72,-33.27 11.59,-66.53 11.59,-99.79 0,-19.66 -2.57,-39.32 -7.72,-58.97 -5.14,-19.65 -18.02,-29.48 -38.61,-29.48 -25.74,0 -46.01,13.6 -60.81,40.82 -14.81,27.21 -24.55,53.59 -26.07,79.38 -1.06,18.11 1.29,36.67 3.86,55.57 4.64,34.04 16.9,66.62 43.44,89.58 12.23,10.58 27.35,16.63 45.37,18.15z"/>
   <path class="fil0 str0" d="M7077.72 898l1.93 15.87c-84.94,63.5 -149.94,137.59 -194.99,222.26 -45.04,84.67 -67.57,185.97 -67.57,303.91 0,39.31 7.4,72.58 22.2,99.79 14.8,27.21 40.22,40.82 76.26,40.82 25.74,0 49.23,-7.18 70.47,-21.54 21.23,-14.36 40.54,-32.13 57.91,-53.3 17.38,-21.16 33.14,-44.98 47.3,-71.44 14.16,-26.46 25.74,-51.03 34.75,-73.71 -43.76,-3.02 -81.09,-17.01 -111.97,-41.96 -30.89,-24.95 -46.33,-65.39 -46.33,-121.34 0,-30.24 5.15,-57.83 15.44,-82.78 10.3,-24.95 23.81,-46.49 40.54,-64.63 16.73,-18.15 36.04,-32.13 57.92,-41.96 21.88,-9.83 45.05,-14.74 69.5,-14.74 29.6,0 49.23,12.86 58.88,38.56 9.66,25.7 14.49,52.92 14.49,81.65 0,34.77 -3.86,69.17 -11.59,103.19 -7.72,34.03 -17.38,67.66 -28.96,100.92 33.46,-3.02 64.67,-12.1 93.63,-27.21 28.96,-15.12 58.24,-31 87.84,-47.63 6.44,0 9.65,3.02 9.65,9.07 0,19.65 -8.68,36.29 -26.06,49.89 -17.38,13.61 -37.65,24.95 -60.81,34.02 -23.17,9.07 -46.33,15.87 -69.5,20.41 -23.17,4.54 -40.54,6.8 -52.12,6.8 -11.59,30.24 -27.35,63.51 -47.3,99.79 -19.95,36.29 -42.47,70.31 -67.57,102.05 -25.1,31.75 -52.77,58.21 -83.02,79.38 -30.24,21.16 -61.46,31.75 -93.63,31.75 -60.49,0 -107.47,-23.05 -140.93,-69.18 -33.46,-46.11 -50.19,-103.19 -50.19,-171.23 0,-63.5 10.94,-124.74 32.82,-183.7 21.88,-58.97 51.16,-112.26 87.84,-159.89 36.68,-47.63 78.51,-88.45 125.48,-122.47 46.98,-34.02 96.2,-57.84 147.68,-71.44zm65.64 419.57c11.59,-30.24 21.24,-61.99 28.96,-95.25 7.72,-33.27 11.58,-66.53 11.58,-99.79 0,-19.66 -2.57,-39.32 -7.72,-58.97 -5.15,-19.65 -18.02,-29.48 -38.62,-29.48 -25.74,0 -46,13.6 -60.81,40.82 -14.8,27.21 -23.49,53.67 -26.05,79.38 0,18.14 1.29,36.66 3.86,55.57 2.57,18.9 7.4,35.91 14.49,51.03 7.07,15.12 16.72,27.97 28.95,38.55 12.23,10.58 27.35,16.63 45.37,18.15zm393.83 -265.35c9.01,-12.09 20.28,-24.19 33.79,-36.29 13.51,-12.1 27.99,-23.81 43.44,-35.16 15.44,-11.34 31.54,-20.41 48.26,-27.21 16.73,-6.81 32.18,-10.21 46.33,-10.21 29.61,0 53.73,7.94 72.4,23.82 18.66,15.87 33.78,36.29 45.37,61.23 11.58,24.95 19.94,52.54 25.09,82.78 5.15,30.24 9.65,58.96 13.51,86.18 25.75,-58.97 49.87,-120.96 72.4,-185.97 22.52,-65.02 42.47,-131.54 59.84,-199.58 17.38,-68.05 31.86,-136.84 43.44,-206.39 11.58,-69.55 18.66,-137.59 21.24,-204.11l0 -20.41c0,-34.78 -2.89,-68.8 -8.69,-102.06 -5.79,-33.27 -15.44,-63.13 -28.96,-89.59 -13.52,-26.46 -31.54,-48.01 -54.05,-64.63 -22.52,-16.63 -51.16,-24.95 -85.91,-24.95 -27.03,0 -54.38,8.7 -82.05,26.08 -27.67,17.39 -54.37,39.32 -80.11,65.77 -25.74,26.46 -49.55,55.18 -71.42,86.18 -21.88,31 -39.9,59.35 -54.06,85.05l-38.61 0c15.45,-39.32 36.68,-80.13 63.71,-122.47 27.03,-42.33 57.59,-81.27 91.7,-116.8 34.1,-35.53 70.78,-64.63 110.04,-87.31 39.25,-22.68 78.83,-34.03 118.73,-34.03 81.08,0 145.43,26.08 193.05,78.25 47.62,52.17 71.43,126.63 71.43,223.4l0 15.87c-1.29,77.11 -12.55,159.14 -33.78,246.08 -21.23,86.94 -47.94,173.88 -80.11,260.82 -32.18,86.93 -67.25,171.61 -105.22,254.01 -37.97,82.4 -74.97,156.86 -111,223.39 0,21.17 1.29,49.9 3.86,86.19 2.57,36.29 8.04,71.82 16.41,106.6 8.36,34.77 20.27,65.39 35.71,91.85 15.45,26.46 36.04,41.2 61.78,44.22 6.44,0 14.16,-3.78 23.17,-11.34 3.86,-3.02 7.72,-6.43 11.58,-10.21 3.86,-3.78 8.36,-7.94 13.51,-12.47 10.3,-9.07 19.31,-16.63 27.03,-22.68 9.01,-6.05 17.38,-9.07 25.1,-9.07 14.16,0 21.24,7.56 21.24,22.68 0,16.63 -8.04,30.62 -24.13,41.96 -16.09,11.34 -35.08,20.41 -56.95,27.22 -21.88,6.8 -43.76,11.34 -65.63,13.6 -21.88,2.27 -39.25,3.4 -52.13,3.4 -24.45,0 -44.4,-7.56 -59.85,-22.68 -15.44,-15.12 -27.99,-34.02 -37.64,-56.7 -9.65,-22.68 -17.05,-46.87 -22.2,-72.58 -5.14,-25.7 -9.01,-49.89 -11.59,-72.58 -18.02,27.22 -37.32,55.19 -57.92,83.92 -20.59,28.72 -43.11,55.56 -67.57,80.51 -24.45,24.95 -50.51,45.36 -78.19,61.23 -27.67,15.87 -57.6,23.81 -89.77,23.81 -45.05,0 -77.55,-17.76 -97.5,-53.3 -19.95,-35.53 -29.92,-77.49 -29.92,-125.87 0,-39.31 4.5,-80.51 13.51,-123.61 9.01,-43.09 21.56,-85.43 37.65,-127.01 16.09,-41.58 34.43,-81.27 55.02,-119.07 20.6,-37.8 42.47,-71.06 65.64,-99.79zm21.24 548.85c21.88,0 43.76,-8.32 65.64,-24.95 21.88,-16.63 42.79,-36.66 62.74,-60.1 19.94,-23.44 37.97,-48.38 54.05,-74.84 16.09,-26.47 29.28,-48.76 39.58,-66.91l-5.8 -129.27c0,-16.63 -0.97,-37.8 -2.89,-63.5 -1.93,-25.71 -6.11,-50.65 -12.55,-74.85 -6.43,-24.19 -15.44,-45.36 -27.03,-63.5 -11.58,-18.15 -27.03,-27.21 -46.33,-27.21 -30.88,0 -57.91,17 -81.08,51.03 -23.17,34.02 -42.47,74.09 -57.92,120.2 -15.44,46.12 -27.02,94.12 -34.75,144.02 -7.72,49.89 -11.59,90.72 -11.59,122.47 0,10.58 0.65,24.57 1.93,41.96 1.29,17.39 3.86,33.64 7.72,48.76 3.86,15.12 9.66,28.35 17.38,39.69 7.72,11.34 18.02,17.01 30.89,17.01z"/>
  </g>
  <g id="_2347955205360">
   <path class="fil0 str0" d="M332.18 736.97c25.75,-42.33 50.84,-83.91 75.29,-124.74 24.46,-40.82 49.55,-79.38 75.29,-115.67 9.13,-13.4 17.71,-26.35 25.1,-40.82 3.87,-7.56 8.04,-13.99 12.55,-19.28 4.5,-5.29 8.68,-11.71 12.55,-19.28l106.17 -165.56c-15.44,-18.14 -31.21,-30.24 -47.29,-36.29 -16.09,-6.05 -35.07,-9.07 -56.95,-9.07 -29.61,0 -59.21,3.02 -88.81,9.07 -34.72,6.27 -69.47,12.31 -104.26,18.15 -11.57,0 -17.37,-5.3 -17.37,-15.88 0,-7.56 2.57,-12.85 7.72,-15.87 16.73,-9.07 38.61,-20.03 65.64,-32.88 55.33,-26.31 113.89,-48.86 172.78,-65.77 28.96,-8.31 53.09,-12.47 72.4,-12.47 55.94,0 114.72,9.36 144.79,62.37 11.59,20.41 18.98,45.73 22.2,75.97 6.23,58.65 4.82,117.99 4.82,176.91 0,90.97 -3.88,181.66 -13.51,272.15 -20.11,185.96 -39.42,372 -59.84,557.92 -5.15,42.33 -8.36,81.27 -9.66,116.8 -1.29,35.53 -1.92,73.71 -1.92,114.53 -1.29,7.57 -1.29,13.99 0,19.28 1.28,5.29 2.57,10.96 3.86,17.01 4.33,15.28 19.13,36.29 36.68,36.29 12.87,0 29.6,-16.63 50.19,-49.9 50.2,-81.64 95.88,-164.81 137.07,-249.47 41.19,-84.67 81.73,-170.86 121.63,-258.55 29.28,-65.93 59.44,-131.44 88.81,-197.32 29.6,-63.5 58.24,-125.49 85.9,-185.97 27.67,-60.48 58.88,-120.96 93.63,-181.44 15.45,-25.7 32.17,-54.05 50.19,-85.05 36.47,-62.74 76.9,-124.26 121.62,-181.44 27.75,-35.48 83.4,-100.02 129.35,-107.73 11.59,0 18.66,5.29 21.24,15.87 2.57,10.58 3.86,21.17 3.86,31.75 0,14.67 1.3,22.4 -5.8,36.29 -5.14,9.07 -13.51,39.31 -25.09,90.72 -6.44,25.71 -12.55,54.05 -18.34,85.05 -5.8,31 -11.91,65.39 -18.34,103.2 -13.81,81.07 -30.14,161.66 -44.4,242.67 -28.58,164.8 -53.41,330.38 -71.43,496.69 -10.42,91.82 -13.51,184.33 -13.51,276.7 0,9.07 0.32,24.19 0.97,45.35 1.15,37.83 5.99,81.59 20.27,116.8 6.44,15.87 16.09,23.81 28.96,23.81 14.15,0 28.31,-6.04 42.47,-18.14 6.44,-6.05 12.87,-11.72 19.3,-17.02 6.44,-5.29 12.87,-11.71 19.31,-19.28 11.28,-13.26 22.02,-26.61 34.75,-38.55 9.01,-10.59 19.3,-15.88 30.89,-15.88 5.14,0 7.72,3.78 7.72,11.34 0,18.15 -5.79,36.67 -17.38,55.57 -23.48,38.3 -59.83,70.85 -99.42,91.85 -19.94,10.58 -37.64,15.87 -53.09,15.87 -63.07,0 -109.08,-17.38 -138.04,-52.16 -28.96,-34.78 -44.72,-86.94 -47.3,-156.49 -2.77,-42.26 -3.86,-84.66 -3.86,-127.01 0,-34.77 3.86,-79.37 11.59,-133.8 8.36,-59.02 15.55,-118.05 25.1,-176.91 10.83,-63.57 20.56,-127.19 32.82,-190.51 12.07,-59.56 22.1,-119.37 32.82,-179.17 9,-47.56 16.42,-95.29 25.1,-142.88 4.99,-25.4 9.65,-53.41 9.65,-79.38l-23.17 0c-10.3,6.04 -27.03,29.48 -50.19,70.31 -30.89,55.94 -59.85,113.4 -86.88,172.37 -27.03,58.97 -53.41,117.93 -79.15,176.9 -47.62,108.86 -95.56,216.59 -143.83,323.18 -48.26,106.6 -100.71,211.3 -157.33,314.12 -6.44,10.58 -15.77,26.46 -28,47.63 -12.23,21.16 -25.74,41.96 -40.54,62.37 -14.8,20.41 -29.93,38.18 -45.37,53.3 -15.45,15.12 -29.6,22.68 -42.47,22.68 -65.63,0 -112.29,-19.28 -139.96,-57.83 -27.67,-38.56 -41.51,-93.37 -41.51,-164.43 0,-63.5 5.79,-136.83 17.37,-219.99 13.2,-83.77 24.37,-167.83 36.68,-251.75 12.54,-85.39 23.71,-170.95 36.68,-256.28 6.44,-42.33 10.61,-83.16 12.55,-122.47 1.92,-39.31 2.89,-76.35 2.89,-111.13 0,-25.71 -0.97,-54.05 -2.89,-85.05 -1.94,-31 -6.12,-58.59 -12.55,-82.78 -47.83,84.27 -96.91,167.54 -148.66,249.47 -33.46,54.43 -71.1,117.93 -112.93,190.51 -41.83,72.58 -81.08,148.55 -117.77,227.93 -36.68,79.38 -67.57,159.14 -92.67,239.27 -25.09,80.13 -37.64,155.74 -37.64,226.8 0,33.26 5.14,61.23 15.44,83.91 10.29,22.68 24.45,45.36 42.47,68.05l34.75 43.09c1.29,1.51 1.93,3.78 1.93,6.8 0,16.63 -7.72,31.75 -23.17,45.36 -15.44,13.61 -30.24,20.41 -44.4,20.41 -34.75,0 -62.42,-3.4 -83.01,-10.2 -44.82,-14.81 -62.75,-48.11 -68.53,-92.99 -3.22,-24.95 -4.82,-54.81 -4.82,-89.58 1.28,-66.53 11.25,-135.32 29.92,-206.39 18.66,-71.06 42.47,-141.37 71.43,-210.93 28.96,-69.55 60.81,-136.83 95.56,-201.85 34.76,-65.02 68.86,-124.74 102.32,-179.17zm1413.16 802.87c3.86,-40.83 10.93,-83.92 21.23,-129.28 20.48,-90.27 51.78,-178.04 90.73,-261.95 19.3,-41.58 39.26,-79.75 59.85,-114.53 -14.15,0 -26.39,3.02 -36.68,9.07 -6.43,3.03 -12.55,6.81 -18.34,11.34 -5.79,4.53 -11.91,8.31 -18.34,11.34 -10.29,6.05 -21.23,13.23 -32.82,21.54 -11.58,8.32 -22.52,12.48 -32.82,12.48 -9.01,0 -14.15,-3.02 -15.44,-9.07 10.29,-21.17 20.59,-34.02 30.88,-38.56 30.48,-16.27 58.72,-38.84 84.95,-61.23 12.87,-12.1 32.17,-24.95 57.91,-38.56 25.75,-13.61 46.98,-20.42 63.71,-20.42 5.15,1.52 10.62,1.89 16.41,1.14 30.2,-3.95 53.09,0.35 53.09,37.42 0,7.56 -3.86,17.39 -11.59,29.49 -7.72,12.1 -12.87,21.16 -15.44,27.21 -2.58,6.05 -6.12,11.71 -10.62,17.01 -4.51,5.29 -8.04,10.21 -10.62,14.74 -45.04,69.55 -77.87,147.8 -98.46,234.74 -20.59,86.94 -30.88,173.5 -30.88,259.68 0,16.63 7.07,31.75 21.23,45.36 14.16,13.61 28.31,20.41 42.47,20.41 11.41,0 20.76,-4.31 30.89,-9.07l34.75 -15.87c7.72,-3.02 18.02,-7.57 30.89,-13.61 12.87,-6.04 23.81,-9.07 32.82,-9.07 2.58,0 3.87,3.78 3.87,11.34 0,9.07 -1.93,15.12 -5.79,18.15 0,0 -3.86,3.78 -11.59,11.34 -9.86,5.78 -19.09,12.34 -28.95,18.14l-32.82 20.41c-23.17,13.61 -47.62,24.95 -73.36,34.02 -25.74,9.07 -51.48,13.61 -77.22,13.61 -36.04,0 -64.03,-16.63 -83.98,-49.89 -19.95,-33.27 -29.92,-69.55 -29.92,-108.86zm401.55 61.23l3.86 -6.8c15.45,-27.22 31.22,-63.13 47.3,-107.73 16.09,-44.6 30.89,-91.85 44.41,-141.75 13.51,-49.89 25.09,-99.04 34.75,-147.42 9.66,-48.38 15.12,-89.96 16.41,-124.74 0,-3.03 -4.5,-4.54 -13.51,-4.54 -11.97,0 -23.82,0.42 -35.72,-1.13 -5.78,-0.76 -9.97,-4.91 -12.54,-12.47 16.7,-19.68 44.67,-31.56 67.57,-43.09 16.41,-9.64 33.19,-18.66 50.19,-27.22 9.01,-4.53 16.41,-7.94 22.2,-10.2 5.79,-2.27 11.26,-4.91 16.41,-7.94 9.01,-3.02 18.66,-8.31 28.96,-15.87 11.59,-7.56 23.81,-11.34 36.68,-11.34 9.01,0 13.52,5.29 13.52,15.87 0,6.05 -1.29,10.58 -3.86,13.61 -9.01,12.1 -17.38,30.24 -25.1,54.43 -7.72,24.19 -13.51,44.6 -17.38,61.24 -2.57,12.09 -5.79,23.44 -9.65,34.01 -6.71,18.39 -10.84,36.65 -15.45,55.57 -1.29,5.29 -2.57,9.44 -3.86,12.47 5.15,0 18.02,-11.34 38.61,-34.03 12.87,-13.6 29.6,-31.37 50.2,-53.3 39.89,-42.48 86.12,-83.24 136.1,-113.4 23.81,-14.36 44.72,-21.55 62.74,-21.55l19.31 0c42.47,0 75.93,12.1 100.39,36.29 24.46,24.19 36.68,61.99 36.68,113.4l0 18.14c-2.57,39.32 -9.33,78.25 -20.28,116.8 -10.93,38.56 -23.48,75.22 -37.64,109.99 -12.22,37.29 -25.49,74.16 -38.61,111.13 -12.27,37.47 -20.58,73.98 -23.17,113.4 0,9.07 1.61,20.41 4.83,34.02 3.21,13.61 9.97,20.41 20.26,20.41 23.17,-3.02 41.83,-6.43 55.99,-10.21 14.16,-3.78 30.25,-16.25 48.26,-37.42 6.43,-7.56 14.15,-11.34 23.17,-11.34 3.86,0 5.79,0.76 5.79,2.27 -2.57,24.19 -13.84,43.85 -33.78,58.97 -41.73,31.62 -98.05,48.66 -149.62,54.43 -27.03,3.02 -49.55,4.54 -67.57,4.54 -29.61,0 -44.4,-21.17 -44.4,-63.51 0,-44.55 8.72,-88.91 21.24,-131.54 12.25,-40.28 25.51,-80.19 38.61,-120.2 14.16,-37.8 26.39,-76.74 36.68,-116.8 10.3,-40.07 16.73,-80.51 19.31,-121.34 0,-27.16 0.62,-57.98 -14.48,-81.65 -9.66,-15.12 -27.35,-22.68 -53.09,-22.68 -19.31,0 -42.15,11.34 -68.53,34.03 -26.39,22.68 -52.45,50.28 -78.19,82.78 -25.75,32.5 -49.23,66.15 -70.46,100.92 -21.24,34.77 -37.01,63.5 -47.3,86.18 -10.56,24.8 -19.06,51.36 -27.03,77.11 -3.86,15.12 -9.97,35.91 -18.34,62.37 -8.37,26.46 -18.02,52.92 -28.96,79.38 -10.94,26.46 -23.17,50.27 -36.68,71.44 -13.51,21.18 -27.99,34.78 -43.44,40.83 -12.88,4.54 -24.45,8.7 -34.76,12.47 -10.29,3.78 -18.66,7.18 -25.09,10.21 -14.16,6.05 -25.1,9.07 -32.82,9.07 -5.14,0 -7.72,-3.02 -7.72,-9.07 0,-6.05 2.89,-17.39 8.68,-34.02 5.8,-16.63 15.77,-37.8 29.92,-63.5zm801.18 -505.76c21.88,-21.17 46.01,-39.69 72.39,-55.57 26.39,-15.87 52.45,-30.62 78.19,-44.22 29.6,-16.63 60.49,-32.51 92.67,-47.63 29.6,-15.12 61.13,-27.21 94.59,-36.29 38.73,-61.74 83.54,-120.26 129.35,-176.9 53.16,-65.75 107.37,-130.66 162.17,-195.05l38.61 0 -55.98 95.26c-3.22,3.78 -6.44,7.56 -9.65,11.34 -55.36,74.32 -106.14,152.43 -146.72,235.87 12.66,-2.98 25.61,-4.54 38.61,-4.54 6.44,1.51 13.19,1.89 20.27,1.14 7.08,-0.76 13.83,-1.14 20.27,-1.14l57.92 0c20.71,0 41.06,2.27 61.77,2.27 14.16,0 30.57,-1.51 49.23,-4.54 38.62,-6.26 77.1,-14.94 113.9,-28.35 18.66,-6.8 33.79,-14.74 45.36,-23.82 10.3,-7.56 15.45,-9.83 15.45,-6.8l0 2.27c-1.29,3.03 -1.94,5.3 -1.94,6.81 -6.43,21.17 -22.2,41.96 -47.29,62.37 -25.1,20.41 -53.73,38.18 -85.91,53.3 -32.18,15.12 -64.35,27.21 -96.53,36.29 -32.18,9.07 -59.21,13.61 -81.09,13.61 -43.43,0 -86.87,0 -130.31,0 -10.94,0 -20.92,-0.76 -29.92,-2.27 -12.51,29.38 -24.18,59.07 -36.68,88.45 -21.88,48.38 -40.86,98.28 -56.95,149.68 -16.09,51.41 -24.13,105.08 -24.13,161.03 0,21.16 1.29,44.6 3.86,70.31 4.46,44.46 16.99,93.61 48.26,127.01 14.16,15.12 33.46,22.68 57.92,22.68 24.45,0 51.48,-8.31 81.09,-24.95 62.67,-35.22 117.05,-90.1 158.3,-148.55 21.88,-31 36.68,-60.86 44.4,-89.59 2.57,-7.56 9.01,-11.34 19.3,-11.34 2.57,0 6.44,0.75 11.59,2.27 5.15,1.51 7.72,3.78 7.72,6.8 -9.01,42.33 -25.75,85.43 -50.19,129.27 -46.04,82.55 -111.01,154.36 -194.02,200.72 -39.26,21.92 -78.83,32.89 -118.73,32.89 -36.04,0 -67.25,-7.19 -93.63,-21.55 -91.97,-50.06 -116.8,-160.5 -116.8,-257.41 0,-63.51 10.94,-120.96 32.82,-172.37 21.88,-51.41 47.62,-101.3 77.23,-149.68 19.28,-31.15 36.62,-63.07 54.05,-95.26l0 -22.68c-51.49,18.15 -100.07,38.18 -145.76,60.11 -45.68,21.92 -92.99,46.49 -141.89,73.71 -1.29,-1.51 -3.22,-3.02 -5.79,-4.54 -2.57,-1.51 -5.15,-3.78 -7.72,-6.8 -6.44,-7.56 -9.65,-12.1 -9.65,-13.61zm1177.63 -197.31l1.93 15.87c-84.94,63.5 -149.94,137.59 -194.99,222.26 -45.04,84.67 -67.57,185.97 -67.57,303.91 0,39.31 7.4,72.58 22.2,99.79 14.81,27.21 40.23,40.82 76.26,40.82 25.74,0 49.23,-7.18 70.47,-21.54 45.64,-30.87 79.47,-76.62 105.21,-124.74 14.16,-26.46 25.75,-51.03 34.75,-73.71 -43.76,-3.02 -81.08,-17.01 -111.97,-41.96 -30.88,-24.95 -46.34,-65.39 -46.34,-121.34 0,-30.24 5.15,-57.83 15.45,-82.78 29.11,-70.58 89.34,-121.34 167.96,-121.34 29.6,0 49.22,12.86 58.87,38.56 9.66,25.7 14.48,52.92 14.48,81.65 0,34.77 -3.86,69.17 -11.58,103.19 -7.72,34.03 -17.38,67.66 -28.96,100.92 33.46,-3.02 64.68,-12.1 93.63,-27.21 28.96,-15.12 58.24,-31 87.84,-47.63 6.44,0 9.65,3.02 9.65,9.07 0,19.65 -8.68,36.29 -26.07,49.89 -17.37,13.61 -37.64,24.95 -60.81,34.02 -23.17,9.07 -46.34,15.87 -69.5,20.41 -23.17,4.54 -40.54,6.8 -52.13,6.8 -11.58,30.24 -27.35,63.51 -47.29,99.79 -19.96,36.29 -42.47,70.31 -67.58,102.05 -25.09,31.75 -52.76,58.21 -83,79.38 -30.25,21.16 -61.46,31.75 -93.63,31.75 -60.49,0 -107.47,-23.05 -140.93,-69.18 -33.46,-46.11 -50.19,-103.19 -50.19,-171.23 0,-63.5 10.94,-124.74 32.82,-183.7 21.88,-58.97 51.16,-112.26 87.84,-159.89 68.33,-88.73 163.55,-164.94 273.17,-193.91zm65.64 419.57c11.59,-30.24 21.24,-61.99 28.96,-95.25 7.72,-33.27 11.58,-66.53 11.58,-99.79 0,-19.66 -2.57,-39.32 -7.72,-58.97 -5.15,-19.65 -18.02,-29.48 -38.61,-29.48 -25.74,0 -46.01,13.6 -60.81,40.82 -14.8,27.21 -23.49,53.67 -26.07,79.38 0,18.14 1.29,36.66 3.86,55.57 4.64,34.04 16.9,66.61 43.44,89.58 12.23,10.58 27.35,16.63 45.37,18.15zm857.16 351.54c13.35,3.14 26.55,-1.14 38.61,-6.81 6.43,-3.02 12.87,-6.04 19.3,-9.07 6.44,-3.02 11.59,-9.07 15.45,-18.15 1.28,-3.02 3.22,-6.8 5.79,-11.33 7.33,-12.93 13.51,-26.46 20.27,-39.69 12.54,-24.57 25.58,-48.92 37.65,-73.71 5.15,-10.58 8.36,-16.63 9.65,-18.14 39.17,-116.57 76.04,-233.93 111.97,-351.54 -27.03,-7.56 -57.6,-22.3 -91.7,-44.22 -34.11,-21.92 -66.28,-48.01 -96.52,-78.24 -30.25,-30.24 -55.34,-63.51 -75.3,-99.79 -19.94,-36.29 -29.92,-73.34 -29.92,-111.13 0,-63.5 10.3,-121.34 30.89,-173.5 41.36,-104.75 111.09,-193.09 200.78,-260.82 88.3,-66.7 188.01,-119.8 291.51,-158.76 50.19,-18.9 97.81,-33.64 142.86,-44.23 9.01,-10.58 17.38,-26.46 25.1,-47.62 10.29,-27.22 23.49,-54.05 39.57,-80.51 16.09,-26.46 38.29,-39.69 66.6,-39.69 6.44,0 10.94,3.78 13.51,11.34 2.58,7.56 3.86,14.36 3.86,20.41 0,12.1 -5.78,25.7 -17.38,40.82 -11.58,15.12 -20.59,26.46 -27.02,34.02 -5.15,6.05 -7.72,13.61 -7.72,22.68 20.59,-7.56 44.72,-13.99 72.4,-19.28 27.67,-5.29 56.62,-9.44 86.87,-12.47 54.6,-5.46 110.18,-9.07 165.06,-9.07 18.02,1.51 34.42,1.89 49.23,1.13 14.8,-0.76 28.64,-1.13 41.51,-1.13 41.18,0 71.75,15.87 91.7,47.62 19.96,31.75 31.21,69.55 33.78,113.4 0,9.07 -5.79,13.61 -17.38,13.61 -10.29,0 -25.42,-1.89 -45.36,-5.67 -19.95,-3.78 -44.08,-9.44 -72.4,-17.01 -57.92,-13.61 -130.64,-20.41 -218.16,-20.41 -14.15,0 -32.49,0.38 -55.02,1.14 -46.48,1.56 -94.13,5.69 -139.96,13.6 -21.88,3.78 -39.25,9.46 -52.12,17.02 -30.89,60.48 -55.99,123.61 -75.29,189.38 -19.31,65.77 -37.33,132.67 -54.06,200.71 -27.13,104.74 -49.41,210.87 -73.36,316.38 -7.72,34.02 -16.09,67.66 -25.1,100.92 74.65,-7.56 148.01,-24.19 220.08,-49.89 72.08,-25.7 139.64,-62.75 202.71,-111.13 21.88,-16.63 40.54,-24.95 55.98,-24.95 19.31,0 28.96,18.15 28.96,54.43 0,18.15 -2.89,35.53 -8.68,52.17 -5.79,16.63 -15.77,29.48 -29.92,38.56 -51.58,36.35 -105.49,69.18 -165.06,90.72 -56.62,20.46 -114.9,26.97 -174.72,29.48 -21.88,1.51 -45.69,2.65 -71.43,3.4 -25.73,0.76 -53.41,1.89 -83.01,3.41 -31.23,110 -71.73,218.92 -123.56,320.92 -25.75,50.65 -55.02,98.65 -87.84,144.02 -32.82,45.35 -69.18,85.42 -109.08,120.2 -10.3,9.07 -21.55,14.74 -33.78,17.01 -12.23,2.27 -24.77,3.4 -37.65,3.4 -14.15,0 -27.99,-3.78 -41.51,-11.34 -13.51,-7.57 -21.56,-20.41 -24.13,-38.56 0,-13.61 4.5,-22.68 13.51,-27.22 9.01,-4.54 18.66,-6.8 28.96,-6.8zm287.65 -621.43c50.82,-155.22 100.41,-310.79 154.44,-464.93 18.02,-48.39 38.29,-101.68 60.81,-159.9 22.52,-58.21 46.65,-109.24 72.4,-153.08 -1.29,-1.51 -3.87,-2.27 -7.72,-2.27 -55.34,9.08 -111.98,24.95 -169.89,47.63 -57.92,22.68 -111.01,53.3 -159.27,91.85 -48.27,38.56 -87.84,85.81 -118.73,141.75 -30.89,55.94 -46.33,122.47 -46.33,199.58 0,31.75 6.43,63.51 19.3,95.26 25.25,62.28 67.02,118.13 119.69,159.89 25.74,20.41 50.84,35.16 75.29,44.22zm1077.24 -149.68l1.93 15.87c-84.94,63.5 -149.94,137.59 -194.99,222.26 -45.04,84.67 -67.57,185.97 -67.57,303.91 0,39.31 7.4,72.58 22.2,99.79 14.8,27.21 40.22,40.82 76.25,40.82 25.75,0 49.23,-7.18 70.47,-21.54 45.64,-30.87 79.47,-76.62 105.21,-124.74 14.15,-26.46 25.75,-51.03 34.75,-73.71 -43.76,-3.02 -81.09,-17.01 -111.98,-41.96 -30.88,-24.95 -46.33,-65.39 -46.33,-121.34 0,-30.24 5.15,-57.83 15.45,-82.78 29.12,-70.58 89.35,-121.34 167.96,-121.34 29.6,0 49.23,12.86 58.88,38.56 9.66,25.7 14.48,52.92 14.48,81.65 0,34.77 -3.86,69.17 -11.59,103.19 -7.72,34.03 -17.38,67.66 -28.96,100.92 33.46,-3.02 64.67,-12.1 93.63,-27.21 28.96,-15.12 58.24,-31 87.84,-47.63 6.44,0 9.65,3.02 9.65,9.07 0,19.65 -8.68,36.29 -26.07,49.89 -17.37,13.61 -37.65,24.95 -60.81,34.02 -23.17,9.07 -46.33,15.87 -69.5,20.41 -23.17,4.54 -40.54,6.8 -52.13,6.8 -11.58,30.24 -27.35,63.51 -47.3,99.79 -19.95,36.29 -42.47,70.31 -67.57,102.05 -25.09,31.75 -52.76,58.21 -83.01,79.38 -30.25,21.16 -61.46,31.75 -93.63,31.75 -60.49,0 -107.46,-23.05 -140.93,-69.18 -33.46,-46.11 -50.19,-103.19 -50.19,-171.23 0,-63.5 10.94,-124.74 32.82,-183.7 21.87,-58.97 51.16,-112.26 87.84,-159.89 68.33,-88.73 163.55,-164.94 273.17,-193.91zm65.64 419.57c11.59,-30.24 21.24,-61.99 28.96,-95.25 7.72,-33.27 11.59,-66.53 11.59,-99.79 0,-19.66 -2.57,-39.32 -7.72,-58.97 -5.15,-19.65 -18.02,-29.48 -38.61,-29.48 -25.74,0 -46,13.6 -60.81,40.82 -14.81,27.21 -23.49,53.67 -26.07,79.38 0,18.14 1.29,36.66 3.86,55.57 4.64,34.04 16.9,66.61 43.43,89.58 12.23,10.58 27.35,16.63 45.38,18.15z"/>
   <path class="fil0 str0" d="M7108.39 898l1.93 15.87c-84.94,63.5 -149.94,137.59 -194.99,222.26 -45.04,84.67 -67.57,185.97 -67.57,303.91 0,39.31 7.4,72.58 22.2,99.79 14.8,27.21 40.22,40.82 76.26,40.82 25.74,0 49.23,-7.18 70.47,-21.54 21.23,-14.36 40.54,-32.13 57.91,-53.3 17.38,-21.16 33.14,-44.98 47.3,-71.44 14.16,-26.46 25.74,-51.03 34.75,-73.71 -43.76,-3.02 -81.09,-17.01 -111.97,-41.96 -30.89,-24.95 -46.33,-65.39 -46.33,-121.34 0,-30.24 5.15,-57.83 15.44,-82.78 10.29,-24.95 23.81,-46.49 40.54,-64.63 16.73,-18.15 36.03,-32.13 57.91,-41.96 21.88,-9.83 45.05,-14.74 69.51,-14.74 29.6,0 49.23,12.86 58.88,38.56 9.65,25.7 14.48,52.92 14.48,81.65 0,34.77 -3.86,69.17 -11.58,103.19 -7.72,34.03 -17.38,67.66 -28.97,100.92 33.47,-3.02 64.68,-12.1 93.63,-27.21 28.97,-15.12 58.24,-31 87.84,-47.63 6.44,0 9.66,3.02 9.66,9.07 0,19.65 -8.68,36.29 -26.06,49.89 -17.38,13.61 -37.65,24.95 -60.81,34.02 -23.17,9.07 -46.34,15.87 -69.5,20.41 -23.17,4.54 -40.54,6.8 -52.13,6.8 -11.58,30.24 -27.35,63.51 -47.3,99.79 -19.95,36.29 -42.47,70.31 -67.57,102.05 -25.1,31.75 -52.77,58.21 -83.02,79.38 -30.24,21.16 -61.46,31.75 -93.63,31.75 -60.49,0 -107.47,-23.05 -140.93,-69.18 -33.46,-46.11 -50.19,-103.19 -50.19,-171.23 0,-63.5 10.94,-124.74 32.82,-183.7 21.88,-58.97 51.16,-112.26 87.84,-159.89 36.68,-47.63 78.51,-88.45 125.48,-122.47 46.98,-34.02 96.2,-57.84 147.68,-71.44zm65.64 419.57c11.59,-30.24 21.24,-61.99 28.96,-95.25 7.72,-33.27 11.57,-66.53 11.57,-99.79 0,-19.66 -2.57,-39.32 -7.71,-58.97 -5.15,-19.65 -18.02,-29.48 -38.62,-29.48 -25.74,0 -46,13.6 -60.81,40.82 -14.8,27.21 -23.49,53.67 -26.06,79.38 0,18.14 1.29,36.66 3.86,55.57 2.57,18.9 7.4,35.91 14.48,51.03 7.08,15.12 16.73,27.97 28.96,38.55 12.23,10.58 27.35,16.63 45.37,18.15zm393.83 -265.35c9.01,-12.09 20.28,-24.19 33.79,-36.29 13.51,-12.1 27.99,-23.81 43.43,-35.16 15.45,-11.34 31.54,-20.41 48.26,-27.21 16.73,-6.81 32.18,-10.21 46.34,-10.21 29.6,0 53.73,7.94 72.4,23.82 18.66,15.87 33.78,36.29 45.37,61.23 11.58,24.95 19.94,52.54 25.09,82.78 5.15,30.24 9.65,58.96 13.51,86.18 25.75,-58.97 49.87,-120.96 72.4,-185.97 22.52,-65.02 42.47,-131.54 59.84,-199.58 17.38,-68.05 31.86,-136.84 43.44,-206.39 11.58,-69.55 18.66,-137.59 21.23,-204.11l0 -20.41c0,-34.78 -2.89,-68.8 -8.68,-102.06 -5.79,-33.27 -15.44,-63.13 -28.96,-89.59 -13.52,-26.46 -31.54,-48.01 -54.05,-64.63 -22.52,-16.63 -51.16,-24.95 -85.92,-24.95 -27.03,0 -54.37,8.7 -82.05,26.08 -27.67,17.39 -54.37,39.32 -80.11,65.77 -25.74,26.46 -49.55,55.18 -71.42,86.18 -21.88,31 -39.9,59.35 -54.06,85.05l-38.61 0c15.44,-39.32 36.68,-80.13 63.71,-122.47 27.02,-42.33 57.59,-81.27 91.7,-116.8 34.1,-35.53 70.78,-64.63 110.04,-87.31 39.25,-22.68 78.82,-34.03 118.72,-34.03 81.09,0 145.43,26.08 193.06,78.25 47.62,52.17 71.43,126.63 71.43,223.4l0 15.87c-1.29,77.11 -12.55,159.14 -33.79,246.08 -21.23,86.94 -47.93,173.88 -80.11,260.82 -32.18,86.93 -67.25,171.61 -105.21,254.01 -37.97,82.4 -74.97,156.86 -111,223.39 0,21.17 1.29,49.9 3.86,86.19 2.57,36.29 8.04,71.82 16.41,106.6 8.36,34.77 20.27,65.39 35.71,91.85 15.45,26.46 36.04,41.2 61.78,44.22 6.44,0 14.15,-3.78 23.17,-11.34 3.86,-3.02 7.72,-6.43 11.59,-10.21 3.86,-3.78 8.36,-7.94 13.51,-12.47 10.3,-9.07 19.3,-16.63 27.03,-22.68 9.01,-6.05 17.38,-9.07 25.1,-9.07 14.16,0 21.24,7.56 21.24,22.68 0,16.63 -8.04,30.62 -24.13,41.96 -16.09,11.34 -35.08,20.41 -56.95,27.22 -21.88,6.8 -43.76,11.34 -65.63,13.6 -21.88,2.27 -39.25,3.4 -52.13,3.4 -24.46,0 -44.4,-7.56 -59.85,-22.68 -15.44,-15.12 -27.99,-34.02 -37.64,-56.7 -9.65,-22.68 -17.05,-46.87 -22.2,-72.58 -5.14,-25.7 -9.01,-49.89 -11.59,-72.58 -18.02,27.22 -37.32,55.19 -57.92,83.92 -20.59,28.72 -43.12,55.56 -67.57,80.51 -24.45,24.95 -50.51,45.36 -78.19,61.23 -27.67,15.87 -57.6,23.81 -89.77,23.81 -45.05,0 -77.55,-17.76 -97.5,-53.3 -19.95,-35.53 -29.93,-77.49 -29.93,-125.87 0,-39.31 4.51,-80.51 13.51,-123.61 9.01,-43.09 21.56,-85.43 37.65,-127.01 16.08,-41.58 34.43,-81.27 55.02,-119.07 20.6,-37.8 42.47,-71.06 65.64,-99.79zm21.24 548.85c21.88,0 43.76,-8.32 65.64,-24.95 21.88,-16.63 42.79,-36.66 62.74,-60.1 19.94,-23.44 37.96,-48.38 54.05,-74.84 16.09,-26.47 29.28,-48.76 39.58,-66.91l-5.8 -129.27c0,-16.63 -0.97,-37.8 -2.89,-63.5 -1.93,-25.71 -6.12,-50.65 -12.55,-74.85 -6.43,-24.19 -15.44,-45.36 -27.03,-63.5 -11.58,-18.15 -27.03,-27.21 -46.33,-27.21 -30.89,0 -57.92,17 -81.08,51.03 -23.17,34.02 -42.47,74.09 -57.92,120.2 -15.44,46.12 -27.02,94.12 -34.75,144.02 -7.72,49.89 -11.58,90.72 -11.58,122.47 0,10.58 0.65,24.57 1.93,41.96 1.28,17.39 3.86,33.64 7.72,48.76 3.86,15.12 9.66,28.35 17.38,39.69 7.72,11.34 18.02,17.01 30.89,17.01z"/>
  </g>
  <g id="_2347955207712">
   <path class="fil1 str1" d="M2224.06 663.93l-4.11 -0.19 2.68 -2.89 -0.04 -1.06 1.23 -3.05 -3.6 -1.44c-16.31,-2.87 -33.06,1.96 -48.43,6.77 -1.87,-6.75 0.73,-3.29 0.04,-9.6 -9.62,0.37 -19.91,4.31 -29.02,7.86 -10.41,4.06 -19.21,12.14 -26.7,14.65l-2.38 -8.97c-5.74,2.01 -21.88,12.86 -26.94,16.87 -9.75,7.73 -14.57,17.05 -22.38,25.96l-4.36 -5.5c-16.18,14.38 -30.4,45.14 -34.81,66.65 -1.17,5.73 -5.18,71.31 -4.64,74.08 12.5,-15.8 20.22,-26.05 34.58,-40.56 11.21,-11.35 8.2,-7.72 8.72,-24.38 0.3,-9.7 -0.61,-20.45 1.82,-29.89 -1.2,-5.05 -2.15,0.34 0.97,-6.19l0.06 5.45 1.03 41.08 28.66 -24.96c3.92,-22.18 6.34,-39.74 24.01,-55.8l9.39 -7.54 -8.93 7.99c-6.41,14.89 -19.83,28.6 -17.52,49.33 4.99,-0.72 43.78,-24.6 49.33,-29.33 2.29,-9.73 1.01,-11.24 5.85,-22.79 2.15,-5.36 7.89,-12.45 13.24,-14.6l-13.03 18.43 -3.73 16.3c7.14,1.01 9.53,-2.66 15.34,-5.28 9.84,-4.44 8.36,-2.82 11.53,-15.96 2.42,-5.58 3.04,-6.55 7.71,-9.67l-6.89 20.69c1.15,-0.06 44.66,-15.92 50.92,-18.13l5.93 -0.95 -6.23 2.42c-23.77,11.78 -77.8,31.52 -95.5,48.59 19.62,6.88 50.71,6.81 70.6,6.73l4.14 0.19 -4.61 0.83c-26.07,11.21 -59.14,-7.05 -78.27,-1.93 -16.16,4.32 -43.28,30.74 -57.66,43.53 -1.03,3.06 -1.49,2 1.04,3.35 9.37,1.91 28.79,1.64 40.2,2.94 16.04,1.84 24.48,0.46 39.6,0.28l3.74 0.11 -4.35 0.84c-30.3,11.46 -54.21,-1.53 -82.95,0.84 -15.95,1.32 -48.88,52.41 -51.64,69.05 4.29,-0.37 15.8,-5.11 23.24,-6.23 21.19,-3.19 71.73,10.11 81.76,2.21l-5.3 -9.9c15.7,-2.21 38.67,1.46 52.16,-11.56l-4.39 -6.68c3.65,-3.18 23.55,-11.34 29.85,-15.03 6.64,-3.88 22.5,-15.75 26.99,-21.54l-8.79 -5.72c2.3,-3.59 6.13,-3.21 10.28,-6.45 2.94,-2.29 6.95,-6.87 9.72,-9.77 4.49,-4.67 15.29,-16.26 16.85,-22.05l-7.99 -3.67c4.85,-7.95 21.79,-16.9 26.91,-31.66l-3.23 -1.79 -4.6 -0.48 2.15 -2.39c7,-10.47 13.91,-19.11 17.05,-32.18l4.02 -11.42c-4.84,-2 -7.46,-2.24 -10.53,-6.09 -19.69,-5.2 -29.29,-7.85 -49.83,-8.74z"/>
   <path class="fil1 str1" d="M1869.87 734.66l-2.29 -2.66 4.41 0.61c9.76,3.43 34.77,4.93 44.86,3.06 -6.81,-13.17 -24.55,-26.25 -35.22,-36.27 -7.97,-7.49 -41.29,-31.1 -42.76,-33.31 14.43,0.84 40.5,31.43 51.52,32.74 3.76,-10.2 -5.46,-20.93 -4.5,-26.51 5.91,2.18 7.16,12.6 8.04,19.02 1.88,13.55 0.2,11.28 9.54,20.46 5.69,5.59 28.28,31.32 32.69,32.49 8.13,-14.85 -3.63,-39.96 -3.14,-49.89 6.76,8.36 9.24,34.82 9.38,46.2 0.16,13.13 -1.37,12.48 6.64,22.11 4.6,5.53 9.11,15.86 15.5,17.86 6.37,-9.38 2.46,-28.6 7.71,-36.83 3.54,18.18 -8.92,39.53 1.88,55.39 7.5,11.01 18.58,42.37 21.05,45.83 6.19,-7.62 9.44,-41.15 9.26,-52.27 -0.24,-15.02 -2.88,-32.36 -6.86,-46.57 -4.45,-15.94 -30.46,-70.01 -44.27,-75.59l-6.27 5.5c-15.91,-18.47 -7.99,-19.4 -39.6,-33.66l-0.84 5.69c-5.05,-2.19 -1.76,0.57 -3.32,-3.43 -20.39,-9.42 -28.25,-12.48 -50.03,-17.1 -0.66,5.43 0.13,4.26 1.32,9.71 -16.9,-5.33 -18.12,-7.12 -35.97,-6.04 -6.81,0.42 -24.59,2.47 -30.09,5.82 0.51,4.65 17.72,47.83 20.9,54.57l-5.72 1.22c3.18,6.6 6.32,14.55 9.37,20.11 3.47,6.35 9.95,11.71 12.61,16.95l-8.28 0.67c5.87,15.99 35.34,43.74 35.69,44.77l-7.76 2.82c5.4,14.85 25.35,24.65 36.97,31.7 -0.11,6.13 -1.55,0.49 -1.34,7.26 22.72,14.89 36.98,21.7 63.52,27.03 49.06,9.83 40.06,34.83 43.33,42.35 10,-30.6 -4.63,-53.88 -18.07,-78.51 -12.27,-22.51 -7.25,-16.14 -30.86,-18.2 -14.74,-1.28 -27.5,-1.41 -40.2,-11 21.79,4.33 30.11,8.92 58.78,8.84 -6.52,-13.42 -21.91,-30.92 -31.95,-41.58 -11.78,-12.51 -27.36,0.12 -55.66,-11.38z"/>
   <path class="fil1 str1" d="M2042.63 538.53l-3.67 -6.26c-8.66,5.25 -15.77,22.28 -20.83,31.03l-7.27 0.08 -10.84 27.86 -6.46 0.61c-12.73,20.47 -20.94,71.09 -9.92,93.59 5.39,11 14.46,22.57 20.37,33.88 3.71,7.09 10.03,36.52 12.99,38.19 8.2,-10.39 1.55,-34.15 43.27,-67.94 20.1,-16.27 42.47,-23.28 51.4,-52.03l-2.86 -7.14c3.73,-9.48 6.94,-16.32 7.97,-26.77l-5.99 -4.84c0.64,-5.25 2.48,-10.62 2.33,-14.73 -0.21,-5.68 -2.63,-3.15 -3.37,-8.5 -1.09,-7.94 1.42,-17.61 -1.49,-26.45l-6.54 0.1c-3.13,-11.85 -5.33,-37.73 -13.95,-46.76 -17,-1.15 -35.24,28 -45.13,36.11z"/>
   <path class="fil1 str1" d="M2034.46 640.5c-10.28,-1.08 -14.73,-35.6 -18.03,-40.89 -2.02,8.02 5.44,29.22 8.97,36.89 4.03,8.76 8.29,8.15 5.74,18.13 -1.91,7.47 -4.58,22.01 -8.95,27.19 -8.61,0.15 -15.3,-16.45 -22.8,-21 2.32,9.72 18.46,21.12 22.15,28.08 0.82,10.78 -9.04,39.25 -5.17,48.81 7.11,-7.07 4.87,-48.33 17.46,-56.85 5.2,-3.52 38.84,-22.17 39.58,-23.46 -10.15,-0.9 -33.73,21.38 -41.19,18.34 -0.33,-6.38 13.54,-46.04 16.15,-56.93 2.56,-10.66 2.62,-15.36 11.62,-21.1 4.19,-2.66 12.87,-8.36 12.99,-14.05 -4.19,3.5 -9.38,14.82 -15.59,11.72l13.96 -44.84c-13.9,22.05 -33.36,85.22 -36.89,89.95z"/>
   <path class="fil1 str1" d="M1907.49 563.76l0.39 -5.92 4.99 0.96c0.14,-7.82 10.16,-11.93 4.46,-27.58 -3.27,-8.98 -11.6,-16.4 -20.88,-12.71 -9.19,3.65 -10.64,17.06 -7.13,25.67 6.26,15.36 13.42,10.88 18.17,19.58z"/>
   <path class="fil1 str1" d="M1918.24 598.6c-1.58,-3.24 2.32,-1.41 -4.35,-4.8l1.53 0.65c3,-7.23 0.8,-0.89 -0.22,-4.8 -5.62,5.03 -18.48,-22.29 -36.71,-6.8 -7.25,10.08 4.51,32.37 24.64,26.08 8.76,-2.74 5.81,-7.18 10.02,-13.06l5.08 2.74z"/>
   <path class="fil1 str1" d="M1931.26 600.57l2.21 -3.7c6.48,-9.82 13.54,-5.32 18.71,-20.55 10.2,-30.02 -38.9,-31.22 -25.3,10.28 1.09,3.32 2.04,3.67 2.83,6.05 1.46,4.45 -0.15,2.39 1.55,7.92z"/>
   <path class="fil1 str1" d="M1942.25 631.56c1.41,6.17 -0.17,2.98 3.52,5.77 16.01,1.8 34.94,-13.14 24.89,-29.88 -6.16,-10.26 -22.06,-11.16 -25.16,11.37 -0.53,3.81 0.11,3.8 0.01,6.76 -0.34,10.32 0.43,4.58 -3.26,5.98z"/>
   <path class="fil1 str1" d="M1911.24 575.24c-0.34,5.8 2.22,9.08 3.96,14.4 1.02,3.91 3.22,-2.43 0.22,4.8l-1.53 -0.65c6.66,3.39 2.77,1.56 4.35,4.8l16.57 30.34c3.45,2.99 2.69,-0.13 1.93,4.32 -6.45,-1.09 -3.19,-2.82 -5.81,2.89l3.92 4.38c6.22,-0.24 5.83,-1.91 10.6,4.07 6.82,8.55 18.23,30.69 25.01,34.35 -1.12,-4.29 -21.96,-39.32 -24.69,-41.63 -3.69,-2.78 -2.11,0.4 -3.52,-5.77 -6.36,-14.4 -14.71,-15.28 -8.78,-34.7l-2.21 3.7 -2.08 5.61c-10.78,-8.38 -9.71,-21.34 -15.36,-32.24l-2.58 1.31z"/>
   <path class="fil1 str1" d="M1934.85 640.54l-3.92 -4.38c2.62,-5.71 -0.65,-3.99 5.81,-2.89 0.76,-4.46 1.51,-1.33 -1.93,-4.32 -5.61,0.16 -31.01,-16.81 -32.77,1.69 -1.45,15.19 25.54,14.87 32.82,9.9z"/>
   <path class="fil1 str1" d="M2043.9 645.25c8.88,-0.13 31.46,-18.86 36.58,-27.95 -5.05,4.51 -12.11,10.03 -17.95,14.6 -5.63,4.4 -15.91,7.2 -18.63,13.35z"/>
   <path class="fil1 str1" d="M1907.49 563.76c0.19,5.41 0.49,7.57 3.76,11.48l2.58 -1.31 -0.95 -15.13 -4.99 -0.96 -0.39 5.92z"/>
   <path class="fil1 str1" d="M2181.94 705.37c1.66,7.47 -1.83,3.65 0.82,11.02l6.89 -20.69c-4.67,3.11 -5.28,4.09 -7.71,9.67z"/>
   <path class="fil1 str1" d="M2158.58 706.48l0.21 3.83 13.03 -18.43c-5.35,2.15 -11.1,9.24 -13.24,14.6z"/>
   <path class="fil1 str1" d="M2280.4 690.19c3.14,-2.65 4.28,-7.31 5.24,-12.16l-11.75 -5.35c3.07,3.86 5.69,4.1 10.53,6.09l-4.02 11.42z"/>
   <path class="fil1 str1" d="M2222.58 659.8c4.13,-2.11 0.98,2 3.82,-4.42l-6.19 -0.07 3.6 1.44 -1.23 3.05z"/>
   <path class="fil1 str1" d="M1903.31 644.62c1.56,4 -1.74,1.24 3.32,3.43l0.84 -5.69c-4.88,5.63 -1.08,2.14 -4.15,2.27z"/>
   <path class="fil1 str1" d="M2065.72 749.24l1.03 -0.75 -0.06 -5.45c-3.12,6.53 -2.18,1.14 -0.97,6.19z"/>
   <polygon class="fil1 str1" points="1869.87,734.66 1871.99,732.61 1867.58,732 "/>
   <polygon class="fil1 str1" points="2233.68,698.26 2233.38,699.73 2239.61,697.31 "/>
   <polygon class="fil1 str1" points="2120.46,708.82 2120.91,709.27 2129.85,701.28 "/>
   <path class="fil1 str1" d="M2073.13 801.02c-2.53,-1.35 -2.07,-0.29 -1.04,-3.35l-2.73 3.3 3.77 0.05z"/>
   <path class="fil1 str1" d="M2224.06 663.93c-2.78,-1.04 -2.33,0 -1.44,-3.07l-2.68 2.89 4.11 0.19z"/>
   <path class="fil1 str1" d="M2265.8 725.24c-5.62,-0.96 -2.24,0.3 -2.45,-2.87l-2.15 2.39 4.6 0.48z"/>
   <polygon class="fil1 str1" points="2208.01,756.07 2212.62,755.24 2208.48,755.05 "/>
   <polygon class="fil1 str1" points="2152.32,805.19 2156.67,804.34 2152.93,804.24 "/>
  </g>
 </g>
</svg>
