<?xml version="1.0" encoding="UTF-8"?>
<!DOCTYPE svg PUBLIC "-//W3C//DTD SVG 1.1//EN" "http://www.w3.org/Graphics/SVG/1.1/DTD/svg11.dtd">
<!-- Creator: CorelDRAW -->
<svg xmlns="http://www.w3.org/2000/svg" xml:space="preserve" width="86.9176mm" height="12.8262mm" version="1.1" style="shape-rendering:geometricPrecision; text-rendering:geometricPrecision; image-rendering:optimizeQuality; fill-rule:evenodd; clip-rule:evenodd"
viewBox="0 0 5623.49 829.84"
 xmlns:xlink="http://www.w3.org/1999/xlink"
 xmlns:xodm="http://www.corel.com/coreldraw/odm/2003">
 <defs>
  <style type="text/css">
   <![CDATA[
    .fil3 {fill:#436649}
    .fil5 {fill:#296E53}
    .fil4 {fill:#2B6D53}
    .fil1 {fill:#C2D8C2}
    .fil6 {fill:#FEFEFE}
    .fil2 {fill:#436649;fill-rule:nonzero}
    .fil0 {fill:#C2D8C2;fill-rule:nonzero}
   ]]>
  </style>
 </defs>
 <g id="Слой_x0020_1">
  <metadata id="CorelCorpID_0Corel-Layer"/>
  <g id="_2463197271840">
   <path class="fil0" d="M534.03 621.55l-84.14 5.37 182.13 -491.06c11.72,-32.2 24.67,-54.2 38.87,-65.83 14.2,-11.63 33.9,-17.35 59.11,-17.35l159.23 0c30.69,0 50.59,13.1 50.59,45.61 0,23.06 -10.34,38.03 -30.36,48.84 -32.99,13.85 -51.29,17.85 -48.46,59.57l31.42 449.74c2.95,37.56 15.88,40.48 46.87,53.13 19.99,9.67 28.22,24.75 28.22,46.69 0,13.96 -4.08,25.41 -12.25,34.35 -8.17,8.95 -20.95,13.42 -38.34,13.42l-248.7 0c-30.49,0 -50.59,-13.37 -50.59,-45.62 0,-23.3 10.75,-38.01 30.89,-48.83 14.35,-5.71 31.92,-10.94 41.54,-23.62 4.62,-6.08 6.57,-15.92 5.86,-29.52l-38.88 -503.94 68.17 -1.07 -208.75 553.31c-11.37,30.77 -22.2,50.63 -32.67,59.75 -18.61,16.21 -47.67,16.82 -70.12,9.13 -25.52,-8.77 -42.18,-50.28 -51.13,-73.17l-204.49 -532.92 62.84 -8.59 -38.35 495.35c-2.08,26.45 7.22,37.54 29.29,50.45 14.21,7.16 27.94,11.94 36.57,26.3 4.08,6.8 6.04,15.39 6.04,25.76 0,32.87 -19.64,47.23 -51.13,47.23l-144.85 0c-30.48,0 -50.59,-13.37 -50.59,-45.62 0,-25.89 13,-39.05 34.62,-50.98 14.52,-5.2 26.17,-8.22 36.04,-21.47 4.79,-6.44 7.63,-16.63 8.69,-30.59l35.68 -454.56c2.09,-24.53 -5.84,-35.35 -27.68,-45.62 -17.09,-6.79 -32.78,-11.76 -43.85,-27.9 -5.15,-7.52 -7.8,-17.18 -7.8,-28.99 0,-30.41 17.04,-45.61 51.12,-45.61l158.7 0c24.49,0 43.84,6.08 57.86,18.25 14.03,12.16 26.45,33.27 37.46,63.33l185.32 487.3zm713.06 -283.36l0 335.42c0,17.59 0.4,36.94 16.51,47.77l10.66 4.83c15.48,9.66 23.43,21.12 23.43,39.72 0,25.19 -16.8,38.1 -41,38.1l-197.58 0c-24,0 -41.54,-12.93 -41.54,-38.1 0,-18.21 8.29,-30.27 23.43,-39.72 11.59,-5.01 17.67,-6.99 23.43,-19.67 2.83,-6.26 4.25,-17.18 4.25,-32.92l0 -201.79c0,-18.39 -1.29,-33.07 -19.7,-41.32l-14.91 -3.22c-14.01,-8.06 -22.9,-17.45 -22.9,-34.34 0,-23.03 16.56,-34.37 36.21,-41.86l94.79 -36.5c21.79,-8.78 43.8,-17.71 67.64,-17.71 24.81,0 37.27,17.88 37.27,41.32zm325.38 0l0 335.42c0,17.18 1.24,29.16 3.55,36.14 4.35,13.19 12.55,15.98 23.61,21.82 12.42,8.59 18.63,20.04 18.63,34.35 0,25.4 -12.25,38.1 -36.74,38.1l-197.05 0c-23.76,0 -41.01,-13.36 -41.01,-38.1 0,-18.31 8.7,-29.8 23.43,-39.72 10.66,-4.83 18.19,-7.21 23.25,-19.14 2.67,-6.26 3.91,-17.35 3.91,-33.46l0 -201.79c0,-18.28 -1.09,-33.42 -19.71,-41.32l-14.37 -3.22c-13.78,-7.93 -23.43,-17.6 -23.43,-34.34 0,-23.13 17.11,-34.38 36.74,-41.86l94.79 -36.5c21.94,-9.04 43.56,-17.71 67.64,-17.71 24.75,0 36.74,18.12 36.74,41.32zm-17.04 138.46l-34.08 -39.71c42.46,-41.84 85.64,-87.49 138.99,-115.21 34.08,-17.71 66.04,-26.47 95.86,-26.47 44.02,0 79.17,14.49 105.26,43.47 26.1,28.98 39.05,67.8 39.05,116.46l0 218.42c0,16.1 1.43,27.19 4.09,33.46 5.12,12.07 12.29,14.25 23.08,19.14 14.87,10.71 23.43,20.63 23.43,39.72 0,25.19 -16.81,38.1 -41.01,38.1l-196.5 0c-24.85,0 -37.27,-12.7 -37.27,-38.1 0,-14.31 6.2,-25.76 18.63,-34.35 10.93,-5.77 19.49,-8.8 23.79,-21.82 2.3,-6.98 3.37,-18.96 3.37,-36.14l0 -173.88c0,-42.38 -18.15,-75.67 -64.44,-75.67 -32.45,0 -60.73,14.2 -84.14,35.95l-18.1 16.64zm455.32 -85.33l-14.38 -4.3c-16.68,-8.4 -23.96,-21.16 -23.96,-39.71 0,-24.47 19.2,-39.18 42.6,-39.18l20.24 0c18.54,0 31.53,-18.81 40.48,-32.74l37.81 -60.65c13.19,-18.83 35.09,-40.25 59.64,-40.25 27.63,0 41.01,18.12 41.01,44.55l0 401.97c0,34.17 10.4,66.01 50.06,66.01 30.02,0 40.55,-18.25 61.59,-34.35 9.63,-7.36 22.88,-8.09 30.35,2.69 3.73,5.36 5.33,13.24 4.98,23.62 0,52.61 -37.47,94.51 -82.19,117.53 -25.03,12.88 -53.08,19.32 -83.97,19.32 -105.37,0 -159.23,-51.86 -159.23,-157.78l0 -223.26c0,-22.45 -3.47,-34.29 -25.03,-43.47zm138.46 5.9l0 -89.08 174.67 0c21.7,0 39.94,9.29 39.94,33.27 0,16.1 -6.74,29.33 -20.41,39.89 -13.67,10.56 -36.04,15.92 -66.92,15.92l-127.28 0zm530.93 -101.43c54.32,0 101.72,11.09 142.19,33.27 86.46,47.37 128.34,131.7 128.34,228.62 0,95.99 -47.79,177.97 -132.25,223.98 -41.71,22.72 -90.18,34.17 -145.2,34.17 -53.97,0 -101.18,-11.09 -141.83,-33.27 -86.66,-47.3 -128.7,-132.76 -128.7,-229.69 0,-95.58 48.47,-176.64 132.07,-222.72 41.54,-22.9 90,-34.35 145.38,-34.35zm38.35 427.73c40.06,-9.39 50.83,-57.43 52.72,-92.67 1.42,-26.66 -2.31,-57.78 -11.19,-93.56 -10.8,-46.17 -33.11,-115.36 -76.15,-141.5 -30.99,-18.8 -65.36,-10.77 -84.32,20.22 -26.07,42.62 -16.2,111.86 -5.15,157.78 10.84,46.3 32.99,114.6 76.16,140.79 15.62,9.48 31.6,12.53 47.93,8.95zm903.17 -670.84c15.98,0 29.47,-1.79 40.3,-5.37 10.83,-3.58 20.95,-7.16 30.36,-10.55 22.11,-7.98 55.52,-8.18 72.07,10.73 9.23,10.55 17.04,27.19 23.43,49.73l36.21 133.09c7.4,27.59 -10.49,46.65 -36.74,51.52 -10.3,1.79 -20.42,0.54 -30.36,-3.76 -9.94,-4.29 -18.28,-14.3 -25.03,-30.05 -13.88,-34.99 -34.67,-83.03 -73.49,-96.07 -13.85,-4.65 -30.89,-6.97 -51.12,-6.97l-106.51 0 0 511.45c0,22.92 7.06,37.08 29.28,45.08l35.69 11.27c22.11,8.17 30.88,22.31 30.88,45.61 0,32.03 -20.3,45.62 -50.59,45.62l-273.19 0c-29.85,0 -50.59,-14.03 -50.59,-45.62 0,-22.18 10.3,-38.46 30.89,-48.83 29.32,-11.66 48.47,-16.39 48.47,-53.13l0 -456.17c0,-36.74 -19.14,-41.47 -48.47,-53.13 -20.59,-10.38 -30.89,-26.66 -30.89,-48.84 0,-31.84 20.54,-45.61 50.59,-45.61l348.81 0zm-207.68 357.42l177.86 0c18.47,0 31.07,-3.76 37.64,-11.27 6.57,-7.51 11.9,-20.21 16.16,-38.1 5.66,-20.9 18.06,-34.08 40.47,-34.89 21.66,-0.36 35.33,11.81 41.01,36.5l33.55 141.68c5.83,25.89 2.47,48.82 -25.56,57.96 -21.05,7.07 -41.27,-3.51 -52.72,-21.47 -22.13,-37.56 -36.16,-42.4 -79.35,-42.4l-189.05 0 0 -88.02zm700.82 -114.31c54.32,0 101.72,11.09 142.19,33.27 86.46,47.37 128.34,131.7 128.34,228.62 0,95.99 -47.79,177.97 -132.25,223.98 -41.71,22.72 -90.18,34.17 -145.2,34.17 -53.97,0 -101.19,-11.09 -141.83,-33.27 -86.66,-47.3 -128.7,-132.76 -128.7,-229.69 0,-95.58 48.47,-176.64 132.07,-222.72 41.54,-22.9 90,-34.35 145.38,-34.35zm38.35 427.73c40.05,-9.39 50.84,-57.44 52.72,-92.67 1.42,-26.66 -2.31,-57.78 -11.19,-93.56 -10.8,-46.17 -33.11,-115.36 -76.15,-141.5 -30.99,-18.8 -65.36,-10.77 -84.32,20.22 -26.07,42.62 -16.2,111.86 -5.15,157.78 10.84,46.29 32.99,114.6 76.16,140.79 15.62,9.48 31.6,12.53 47.93,8.95zm562.36 -427.73c54.32,0 101.72,11.09 142.19,33.27 86.44,47.38 128.34,131.71 128.34,228.62 0,95.99 -47.79,177.97 -132.25,223.98 -41.71,22.72 -90.18,34.17 -145.2,34.17 -53.97,0 -101.18,-11.09 -141.83,-33.27 -86.66,-47.3 -128.69,-132.75 -128.69,-229.69 0,-95.57 48.47,-176.64 132.06,-222.72 41.54,-22.9 90,-34.35 145.39,-34.35zm38.35 427.73c40.06,-9.39 50.83,-57.43 52.72,-92.67 1.42,-26.66 -2.31,-57.78 -11.18,-93.56 -10.8,-46.16 -33.13,-115.38 -76.16,-141.5 -30.98,-18.8 -65.37,-10.77 -84.32,20.22 -26.07,42.62 -16.21,111.85 -5.15,157.78 10.84,46.31 32.98,114.59 76.15,140.79 15.62,9.48 31.6,12.53 47.94,8.95zm649.16 -24.15l-8.52 -3.22 0 -521.11c0,-18.37 -1.29,-33.08 -19.7,-41.32l-14.38 -3.22c-14.36,-7.89 -23.43,-17.19 -23.43,-34.34 0,-23.13 17.12,-34.37 36.75,-41.86l94.79 -36.5c23.58,-9.71 74.24,-30.98 94.8,-6.26 6.39,7.69 9.58,17.71 9.58,29.88l0 632.2c0,17.92 0.68,36.37 16.5,47.77l10.65 4.83c15.09,10.13 23.43,21 23.43,39.72 0,25.19 -16.8,38.1 -41,38.1l-99.59 0c-42.77,0 -79.88,-32.38 -79.88,-76.21l0 -28.44zm-364.25 -128.27c0,-56.89 10.82,-105.91 32.3,-147.05 43.48,-83.33 121.85,-128.27 215.32,-128.27 83.05,0 142.14,39.74 183.2,110.55l-47.4 60.65c-20.85,-41.5 -50.81,-75.67 -100.65,-75.67 -44.76,0 -71.54,33.26 -85.38,72.45 -8.34,23.62 -12.6,52.59 -12.6,86.94 0,47.27 9.01,109.78 49.88,140.07 32.84,24.35 77.43,22 109.7,-2.15 17.22,-12.88 32.13,-32.56 44.91,-59.04l30.36 39.18c-26.99,46.15 -58.22,82.29 -93.91,108.58 -35.68,26.3 -76.15,39.54 -121.24,39.54 -80.76,0 -143.77,-45.13 -178.05,-117 -17.57,-36.85 -26.44,-79.79 -26.44,-128.8z"/>
   <g>
    <path class="fil1" d="M1107.85 245.19c-0.41,-5.93 1.64,-6.08 5.76,-9.82 11.17,-10.18 33.97,-19.06 48.02,-25.13 3.61,-1.56 16.67,-9.57 18.55,-9.72 1.16,-1.97 3.02,-2.81 4.96,-4.21l1.32 0.03c0.94,-1.09 2.15,-2.37 3.06,-3.7l2.39 0c3.66,-2.77 14.49,-18.17 15.33,-23.14 -1.2,0.94 -8.02,15.92 -13.5,22.46 -6.04,7.23 -9.96,11.73 -18.27,18.06 -10.72,8.18 -26.84,17.95 -35.8,25.7 -8.4,7.27 -24.97,24.2 -26.67,34.33 4.22,-0.3 10.07,1.53 14.9,1.68 5.71,0.17 10.47,0.06 16.03,-0.34 10.03,-0.72 18.57,-2.34 27.53,-5.86 33.28,-13.06 54.08,-37.03 62.6,-71.6 3.31,-13.43 3.61,-38.47 -0.5,-52.63l-1.43 -5.01c0.44,-3.54 -0.39,-0.74 1.16,-2.11 -0.25,-3.43 -4.58,-12.55 -6.51,-16.45 -2.88,-5.84 -1.3,-3.46 -3.53,-4.56 -2.08,1.25 -2.72,2.83 -4.22,4.76 -1.12,1.44 -2.37,2.83 -3.45,4.25 -9.89,13.06 -25.21,23.78 -40.92,29.11 -16.68,5.66 -35.73,6.51 -49.77,20.4 -16.22,16.04 -20.48,36.13 -19.36,59.41 0.1,1.93 0.83,12.77 2.34,14.09z"/>
    <path class="fil1" d="M982.19 104.67c1.4,0.74 1.94,-0.83 0.28,5.18 -6.66,24.18 -0.34,57.21 17.6,76.2 34.23,36.2 71.21,23.7 77.35,25.2 -0.53,-5.24 -7.73,-13.63 -10.91,-17.94 -8.18,-11.13 -32.03,-23.7 -39.67,-30.89 -0.81,-0.76 -6.75,-6.04 -7.16,-6.26 -2.35,-2.66 -6.28,-7.1 -8,-9.84 -0.52,-0.84 -6.08,-10 -6.09,-10.02 -0.35,0.65 -1.05,-0.53 0.45,1.89 4.43,7.14 7.04,9.1 7.84,10.26 1.42,2.04 2.58,5.2 7.1,6.35l1.27 -0.83c2.84,2.01 6.56,3.71 8.56,6.19 2.07,-0.07 36.17,15.8 42.47,20.53 10.49,7.85 7.93,7.82 7.45,13.9 2.53,-4.01 2.38,-20.24 2.37,-24.33 -0.03,-19.93 -11.48,-39.2 -29.7,-46.08 -11.18,-4.22 -24.9,-5.09 -37.73,-12.86 -6.67,-4.04 -14.88,-11.35 -19.78,-17.77 -3.58,-4.7 -3.31,-5.54 -6.69,-6.22 -2.25,4.43 -6.22,12.83 -7.01,17.34z"/>
    <path class="fil1" d="M1113 270.05c1.7,-10.13 18.27,-27.06 26.67,-34.33 8.96,-7.74 25.08,-17.51 35.8,-25.7 8.31,-6.33 12.23,-10.83 18.27,-18.06 5.48,-6.55 12.29,-21.52 13.5,-22.46 -0.83,4.97 -11.67,20.37 -15.33,23.14 -1.55,2.43 -2.81,3.42 -5.67,4.05l-4.9 4.24c-21.38,15.82 -37.3,21.37 -56.39,38.7 -9.05,8.22 -11.79,14.25 -14.47,16.85 -1.92,-2.55 -1.84,-7.84 -2.62,-11.3 -1.51,-1.33 -2.25,-12.16 -2.34,-14.09 -1.13,-23.28 3.14,-43.37 19.36,-59.41 14.05,-13.89 33.09,-14.74 49.77,-20.4 15.71,-5.32 31.03,-16.05 40.92,-29.11 1.08,-1.42 2.34,-2.81 3.45,-4.25 1.5,-1.93 2.14,-3.51 4.22,-4.76 2.23,1.1 0.65,-1.27 3.53,4.56 1.93,3.9 6.26,13.02 6.51,16.45 0.27,5.16 10.72,26.46 7.67,54.68 -1.99,18.35 -6.87,32.36 -16.85,47.47 -17.07,25.88 -52.26,43.21 -84.65,42.14 -1.43,-0.03 -3.18,-0.17 -4.55,-0.16 -0.21,0 -1.73,0.08 -1.86,0.12 -1.7,0.51 -0.28,-0.28 -1.54,1.01 9.13,-0.87 18.52,3.4 39.4,-0.94 10.44,-2.17 21.72,-6.57 31.02,-11.84 40.04,-22.7 57.85,-72.49 47.48,-117.36 -2.77,-12 -5.91,-21.12 -10.41,-32.47 -1.86,-4.68 -12.14,-25.87 -15.04,-27.85 -8.54,15.59 -22.79,35.75 -38.67,44.47 -20.04,10.99 -42.05,9.94 -60.36,23.53 -18.09,13.42 -27.17,31.02 -29.44,53.74 -2.61,26.05 5.31,47.95 11.17,72.45 2.21,-1.51 5.74,-10.17 6.37,-13.12z"/>
    <path class="fil1" d="M1061.54 218.53c-1.06,-1.05 1.27,-0.85 -2.15,-1.06 -3.23,0 -8.81,0.8 -11.31,-0.7 -8.88,1.28 -28.16,-6.75 -35.88,-11.5 -9.89,-6.08 -17.8,-13.72 -23.93,-23.49 -6.42,-10.23 -10.93,-23.05 -11.81,-35.35 -1.76,-24.65 5.47,-34.09 5.73,-41.78 0.8,-4.51 4.77,-12.91 7.01,-17.34 3.38,0.68 3.11,1.52 6.69,6.22 4.9,6.41 13.11,13.72 19.78,17.77 12.83,7.78 26.55,8.64 37.73,12.86 18.21,6.88 29.66,26.15 29.7,46.08 0.01,4.1 0.16,20.32 -2.37,24.33 -0.54,2.47 -0.25,3.43 -1.54,5.43 -1.13,-0.92 -5.21,-7.12 -10.11,-11.91 -13.13,-12.84 -37.67,-24.42 -39.36,-27.54 -3.12,-1.03 -4.95,-3.45 -7.74,-5.22 -0.06,1.48 0.36,1.11 -0.76,1.45l-1.53 -0.65c0.41,0.23 6.35,5.51 7.16,6.26 7.65,7.19 31.49,19.75 39.67,30.89 3.18,4.32 10.38,12.7 10.91,17.94l4.12 9.6c1.78,-2.25 6.48,-21.81 7.19,-25.65 1.98,-10.64 3.4,-19.7 2.39,-30.69 -1.63,-17.84 -9.36,-32.35 -23.19,-42.53 -14.84,-10.93 -31.93,-9.7 -47.42,-18.54 -19.5,-11.13 -28.22,-33.44 -30.97,-34.9 -7.6,10.09 -16.55,33.76 -19.55,46.99 -11.92,52.74 23.47,102.19 75.31,103.41 4.75,0.12 12.39,-0.96 16.25,-0.42z"/>
    <path class="fil1" d="M1107.85 245.19c0.78,3.45 0.7,8.75 2.62,11.3 2.67,-2.6 5.42,-8.62 14.47,-16.85 19.09,-17.33 35.01,-22.88 56.39,-38.7l-1.15 -0.42c-1.88,0.16 -14.94,8.17 -18.55,9.72 -14.05,6.07 -36.85,14.95 -48.02,25.13 -4.11,3.75 -6.17,3.89 -5.76,9.82z"/>
    <path class="fil1" d="M1080.73 194.59c0.48,-6.08 3.04,-6.04 -7.45,-13.9 -6.3,-4.73 -40.4,-20.6 -42.47,-20.53l-1.1 0.41c1.7,3.11 26.24,14.7 39.36,27.54 4.9,4.79 8.98,10.99 10.11,11.91 1.29,-2.01 1,-2.97 1.54,-5.43z"/>
    <path class="fil1" d="M1061.54 218.53c4.63,1.24 4.65,-0.8 5.36,-1.67 -2.38,-0.59 -2.37,-0.52 -4.98,-0.51 -3.8,0.03 -11.15,-0.34 -13.85,0.42 2.5,1.5 8.08,0.7 11.31,0.7 3.42,0.21 1.09,0.01 2.15,1.06z"/>
    <path class="fil1" d="M1131.5 279.44c1.26,-1.29 -0.16,-0.5 1.54,-1.01 0.13,-0.04 1.64,-0.12 1.86,-0.12 1.38,-0.01 3.12,0.14 4.55,0.16 -1.6,-2.26 -1.57,-1.25 -7.72,-1.24 -3.47,0.01 -4.51,-1 -8.18,-0.16 5.1,5.25 -3.54,-1.34 1.54,1.35l6.41 1.02z"/>
    <path class="fil1" d="M1021.97 155.36c2.79,1.77 4.62,4.19 7.74,5.22l1.1 -0.41c-2,-2.48 -5.72,-4.18 -8.56,-6.19l-1.27 0.83 0.98 0.55z"/>
    <path class="fil1" d="M1185.14 196.31l1.09 0.38c2.86,-0.63 4.13,-1.62 5.67,-4.05l-2.39 0c-0.91,1.33 -2.12,2.61 -3.06,3.7l-1.32 -0.03z"/>
    <path class="fil1" d="M1180.18 200.52l1.15 0.42 4.9 -4.24 -1.09 -0.38c-1.94,1.39 -3.8,2.23 -4.96,4.21z"/>
    <path class="fil1" d="M1019.68 156.16l1.53 0.65c1.12,-0.34 0.71,0.03 0.76,-1.45l-0.98 -0.55c-4.52,-1.16 -5.68,-4.32 -7.1,-6.35 -0.8,-1.16 -3.41,-3.12 -7.84,-10.26 -1.5,-2.42 -0.8,-1.24 -0.45,-1.89 0.01,0.01 5.57,9.17 6.09,10.02 1.72,2.74 5.65,7.18 8,9.84z"/>
   </g>
  </g>
  <g id="_2463197216304">
   <path class="fil2" d="M526.15 634.49l-84.14 5.37 182.13 -491.06c11.72,-32.2 24.67,-54.2 38.87,-65.83 14.2,-11.63 33.9,-17.35 59.11,-17.35l159.23 0c30.69,0 50.59,13.1 50.59,45.61 0,23.06 -10.34,38.03 -30.36,48.84 -32.99,13.85 -51.29,17.85 -48.46,59.57l31.42 449.74c2.95,37.56 15.88,40.48 46.87,53.13 19.99,9.67 28.22,24.75 28.22,46.69 0,13.96 -4.08,25.41 -12.25,34.35 -8.17,8.95 -20.95,13.42 -38.34,13.42l-248.7 0c-30.49,0 -50.59,-13.37 -50.59,-45.62 0,-23.3 10.75,-38.01 30.89,-48.83 14.35,-5.71 31.92,-10.94 41.54,-23.62 4.62,-6.08 6.57,-15.92 5.86,-29.52l-38.88 -503.94 68.17 -1.07 -208.75 553.31c-11.37,30.77 -22.2,50.63 -32.67,59.75 -18.61,16.21 -47.67,16.82 -70.12,9.13 -25.52,-8.77 -42.18,-50.28 -51.13,-73.17l-204.49 -532.92 62.84 -8.59 -38.35 495.35c-2.08,26.45 7.22,37.54 29.29,50.45 14.21,7.16 27.94,11.94 36.57,26.3 4.08,6.8 6.04,15.39 6.04,25.76 0,32.87 -19.64,47.23 -51.13,47.23l-144.85 0c-30.48,0 -50.59,-13.37 -50.59,-45.62 0,-25.89 13,-39.05 34.62,-50.98 14.52,-5.2 26.17,-8.22 36.04,-21.47 4.79,-6.44 7.63,-16.63 8.69,-30.59l35.68 -454.56c2.09,-24.53 -5.84,-35.35 -27.68,-45.62 -17.09,-6.79 -32.78,-11.76 -43.85,-27.9 -5.15,-7.52 -7.8,-17.18 -7.8,-28.99 0,-30.41 17.04,-45.61 51.12,-45.61l158.7 0c24.49,0 43.84,6.08 57.86,18.25 14.03,12.16 26.45,33.27 37.46,63.33l185.32 487.3zm713.06 -283.36l0 335.42c0,17.59 0.4,36.94 16.51,47.77l10.66 4.83c15.48,9.66 23.43,21.12 23.43,39.72 0,25.19 -16.8,38.1 -41,38.1l-197.58 0c-24,0 -41.54,-12.93 -41.54,-38.1 0,-18.21 8.29,-30.27 23.43,-39.72 11.59,-5.01 17.67,-6.99 23.43,-19.67 2.83,-6.26 4.25,-17.18 4.25,-32.92l0 -201.79c0,-18.39 -1.29,-33.07 -19.7,-41.32l-14.91 -3.22c-14.01,-8.06 -22.9,-17.45 -22.9,-34.34 0,-23.03 16.56,-34.37 36.21,-41.86l94.79 -36.5c21.79,-8.78 43.8,-17.71 67.64,-17.71 24.81,0 37.27,17.88 37.27,41.32zm325.38 0l0 335.42c0,17.18 1.24,29.16 3.55,36.14 4.35,13.19 12.55,15.98 23.61,21.82 12.42,8.59 18.63,20.04 18.63,34.35 0,25.4 -12.25,38.1 -36.74,38.1l-197.05 0c-23.76,0 -41.01,-13.36 -41.01,-38.1 0,-18.31 8.7,-29.8 23.43,-39.72 10.66,-4.83 18.19,-7.21 23.25,-19.14 2.67,-6.26 3.91,-17.35 3.91,-33.46l0 -201.79c0,-18.28 -1.09,-33.42 -19.71,-41.32l-14.37 -3.22c-13.78,-7.93 -23.43,-17.6 -23.43,-34.34 0,-23.13 17.11,-34.38 36.74,-41.86l94.79 -36.5c21.94,-9.04 43.56,-17.71 67.64,-17.71 24.75,0 36.74,18.12 36.74,41.32zm-17.04 138.46l-34.08 -39.71c42.46,-41.84 85.64,-87.49 138.99,-115.21 34.08,-17.71 66.04,-26.47 95.86,-26.47 44.02,0 79.17,14.49 105.26,43.47 26.1,28.98 39.05,67.8 39.05,116.46l0 218.42c0,16.1 1.43,27.19 4.09,33.46 5.12,12.07 12.29,14.25 23.08,19.14 14.87,10.71 23.43,20.63 23.43,39.72 0,25.19 -16.81,38.1 -41.01,38.1l-196.5 0c-24.85,0 -37.27,-12.7 -37.27,-38.1 0,-14.31 6.2,-25.76 18.63,-34.35 10.93,-5.77 19.49,-8.8 23.79,-21.82 2.3,-6.98 3.37,-18.96 3.37,-36.14l0 -173.88c0,-42.38 -18.15,-75.67 -64.44,-75.67 -32.45,0 -60.73,14.2 -84.14,35.95l-18.1 16.64zm455.32 -85.33l-14.38 -4.3c-16.68,-8.4 -23.96,-21.16 -23.96,-39.71 0,-24.47 19.2,-39.18 42.6,-39.18l20.24 0c18.54,0 31.53,-18.81 40.48,-32.74l37.81 -60.65c13.19,-18.83 35.09,-40.25 59.64,-40.25 27.63,0 41.01,18.12 41.01,44.55l0 401.97c0,34.17 10.4,66.01 50.06,66.01 30.02,0 40.55,-18.25 61.59,-34.35 9.63,-7.36 22.88,-8.09 30.35,2.69 3.73,5.36 5.33,13.24 4.98,23.62 0,52.61 -37.47,94.51 -82.19,117.53 -25.03,12.88 -53.08,19.32 -83.97,19.32 -105.37,0 -159.23,-51.86 -159.23,-157.78l0 -223.26c0,-22.45 -3.47,-34.29 -25.03,-43.47zm138.46 5.9l0 -89.08 174.67 0c21.7,0 39.94,9.29 39.94,33.27 0,16.1 -6.74,29.33 -20.41,39.89 -13.67,10.56 -36.04,15.92 -66.92,15.92l-127.28 0zm530.93 -101.43c54.32,0 101.72,11.09 142.19,33.27 86.46,47.37 128.34,131.7 128.34,228.62 0,95.99 -47.79,177.97 -132.25,223.98 -41.71,22.72 -90.18,34.17 -145.2,34.17 -53.97,0 -101.18,-11.09 -141.83,-33.27 -86.66,-47.3 -128.7,-132.76 -128.7,-229.69 0,-95.58 48.47,-176.64 132.07,-222.72 41.54,-22.9 90,-34.35 145.38,-34.35zm38.35 427.73c40.06,-9.39 50.83,-57.43 52.72,-92.67 1.42,-26.66 -2.31,-57.78 -11.19,-93.56 -10.8,-46.17 -33.11,-115.36 -76.15,-141.5 -30.99,-18.8 -65.36,-10.77 -84.32,20.22 -26.07,42.62 -16.2,111.86 -5.15,157.78 10.84,46.3 32.99,114.6 76.16,140.79 15.62,9.48 31.6,12.53 47.93,8.95zm903.17 -670.84c15.98,0 29.47,-1.79 40.3,-5.37 10.83,-3.58 20.95,-7.16 30.36,-10.55 22.11,-7.98 55.52,-8.18 72.07,10.73 9.23,10.55 17.04,27.19 23.43,49.73l36.21 133.09c7.4,27.59 -10.49,46.65 -36.74,51.52 -10.3,1.79 -20.42,0.54 -30.36,-3.76 -9.94,-4.29 -18.28,-14.3 -25.03,-30.05 -13.88,-34.99 -34.67,-83.03 -73.49,-96.07 -13.85,-4.65 -30.89,-6.97 -51.12,-6.97l-106.51 0 0 511.45c0,22.92 7.06,37.08 29.28,45.08l35.69 11.27c22.11,8.17 30.88,22.31 30.88,45.61 0,32.03 -20.3,45.62 -50.59,45.62l-273.19 0c-29.85,0 -50.59,-14.03 -50.59,-45.62 0,-22.18 10.3,-38.46 30.89,-48.83 29.32,-11.66 48.47,-16.39 48.47,-53.13l0 -456.17c0,-36.74 -19.14,-41.47 -48.47,-53.13 -20.59,-10.38 -30.89,-26.66 -30.89,-48.84 0,-31.84 20.54,-45.61 50.59,-45.61l348.81 0zm-207.68 357.42l177.86 0c18.47,0 31.07,-3.76 37.64,-11.27 6.57,-7.51 11.9,-20.21 16.16,-38.1 5.66,-20.9 18.06,-34.08 40.47,-34.89 21.66,-0.36 35.33,11.81 41.01,36.5l33.55 141.68c5.83,25.89 2.47,48.82 -25.56,57.96 -21.05,7.07 -41.27,-3.51 -52.72,-21.47 -22.13,-37.56 -36.16,-42.4 -79.35,-42.4l-189.05 0 0 -88.02zm700.82 -114.31c54.32,0 101.72,11.09 142.19,33.27 86.46,47.37 128.34,131.7 128.34,228.62 0,95.99 -47.79,177.97 -132.25,223.98 -41.71,22.72 -90.18,34.17 -145.2,34.17 -53.97,0 -101.19,-11.09 -141.83,-33.27 -86.66,-47.3 -128.7,-132.76 -128.7,-229.69 0,-95.58 48.47,-176.64 132.07,-222.72 41.54,-22.9 90,-34.35 145.38,-34.35zm38.35 427.73c40.05,-9.39 50.84,-57.44 52.72,-92.67 1.42,-26.66 -2.31,-57.78 -11.19,-93.56 -10.8,-46.17 -33.11,-115.36 -76.15,-141.5 -30.99,-18.8 -65.36,-10.77 -84.32,20.22 -26.07,42.62 -16.2,111.86 -5.15,157.78 10.84,46.29 32.99,114.6 76.16,140.79 15.62,9.48 31.6,12.53 47.93,8.95zm562.36 -427.73c54.32,0 101.72,11.09 142.19,33.27 86.44,47.38 128.34,131.71 128.34,228.62 0,95.99 -47.79,177.97 -132.25,223.98 -41.71,22.72 -90.18,34.17 -145.2,34.17 -53.97,0 -101.18,-11.09 -141.83,-33.27 -86.66,-47.3 -128.69,-132.75 -128.69,-229.69 0,-95.57 48.47,-176.64 132.06,-222.72 41.54,-22.9 90,-34.35 145.39,-34.35zm38.35 427.73c40.06,-9.39 50.83,-57.43 52.72,-92.67 1.42,-26.66 -2.31,-57.78 -11.18,-93.56 -10.8,-46.16 -33.13,-115.38 -76.16,-141.5 -30.98,-18.8 -65.37,-10.77 -84.32,20.22 -26.07,42.62 -16.21,111.85 -5.15,157.78 10.84,46.31 32.98,114.59 76.15,140.79 15.62,9.48 31.6,12.53 47.94,8.95zm649.16 -24.15l-8.52 -3.22 0 -521.11c0,-18.37 -1.29,-33.08 -19.7,-41.32l-14.38 -3.22c-14.36,-7.89 -23.43,-17.19 -23.43,-34.34 0,-23.13 17.12,-34.37 36.75,-41.86l94.79 -36.5c23.58,-9.71 74.24,-30.98 94.8,-6.26 6.39,7.69 9.58,17.71 9.58,29.88l0 632.2c0,17.92 0.68,36.37 16.5,47.77l10.65 4.83c15.09,10.13 23.43,21 23.43,39.72 0,25.19 -16.8,38.1 -41,38.1l-99.59 0c-42.77,0 -79.88,-32.38 -79.88,-76.21l0 -28.44zm-364.25 -128.27c0,-56.89 10.82,-105.91 32.3,-147.05 43.48,-83.33 121.85,-128.27 215.32,-128.27 83.05,0 142.14,39.74 183.2,110.55l-47.4 60.65c-20.85,-41.5 -50.81,-75.67 -100.65,-75.67 -44.76,0 -71.54,33.26 -85.38,72.45 -8.34,23.62 -12.6,52.59 -12.6,86.94 0,47.27 9.01,109.78 49.88,140.07 32.84,24.35 77.43,22 109.7,-2.15 17.22,-12.88 32.13,-32.56 44.91,-59.04l30.36 39.18c-26.99,46.15 -58.22,82.29 -93.91,108.58 -35.68,26.3 -76.15,39.54 -121.24,39.54 -80.76,0 -143.77,-45.13 -178.05,-117 -17.57,-36.85 -26.44,-79.79 -26.44,-128.8z"/>
   <g>
    <path class="fil3" d="M1099.97 258.13c-0.41,-5.93 1.64,-6.08 5.76,-9.82 11.17,-10.18 33.97,-19.06 48.02,-25.13 3.61,-1.56 16.67,-9.57 18.55,-9.72 1.16,-1.97 3.02,-2.81 4.96,-4.21l1.32 0.03c0.94,-1.09 2.15,-2.37 3.06,-3.7l2.39 0c3.66,-2.77 14.49,-18.17 15.33,-23.14 -1.2,0.94 -8.02,15.92 -13.5,22.46 -6.04,7.23 -9.96,11.73 -18.27,18.06 -10.72,8.18 -26.84,17.95 -35.8,25.7 -8.4,7.27 -24.97,24.2 -26.67,34.33 4.22,-0.3 10.07,1.53 14.9,1.68 5.71,0.17 10.47,0.06 16.03,-0.34 10.03,-0.72 18.57,-2.34 27.53,-5.86 33.28,-13.06 54.08,-37.03 62.6,-71.6 3.31,-13.43 3.61,-38.47 -0.5,-52.63l-1.43 -5.01c0.44,-3.54 -0.39,-0.74 1.16,-2.11 -0.25,-3.43 -4.58,-12.55 -6.51,-16.45 -2.88,-5.84 -1.3,-3.46 -3.53,-4.56 -2.08,1.25 -2.72,2.83 -4.22,4.76 -1.12,1.44 -2.37,2.83 -3.45,4.25 -9.89,13.06 -25.21,23.78 -40.92,29.11 -16.68,5.66 -35.73,6.51 -49.77,20.4 -16.22,16.04 -20.48,36.13 -19.36,59.41 0.1,1.93 0.83,12.77 2.34,14.09z"/>
    <path class="fil3" d="M974.31 117.61c1.4,0.74 1.94,-0.83 0.28,5.18 -6.66,24.18 -0.34,57.21 17.6,76.2 34.23,36.2 71.21,23.7 77.35,25.2 -0.53,-5.24 -7.73,-13.63 -10.91,-17.94 -8.18,-11.13 -32.03,-23.7 -39.67,-30.89 -0.81,-0.76 -6.75,-6.04 -7.16,-6.26 -2.35,-2.66 -6.28,-7.1 -8,-9.84 -0.52,-0.84 -6.08,-10 -6.09,-10.02 -0.35,0.65 -1.05,-0.53 0.45,1.89 4.43,7.14 7.04,9.1 7.84,10.26 1.42,2.04 2.58,5.2 7.1,6.35l1.27 -0.83c2.84,2.01 6.56,3.71 8.56,6.19 2.07,-0.07 36.17,15.8 42.47,20.53 10.49,7.85 7.93,7.82 7.45,13.9 2.53,-4.01 2.38,-20.24 2.37,-24.33 -0.03,-19.93 -11.48,-39.2 -29.7,-46.08 -11.18,-4.22 -24.9,-5.09 -37.73,-12.86 -6.67,-4.04 -14.88,-11.35 -19.78,-17.77 -3.58,-4.7 -3.31,-5.54 -6.69,-6.22 -2.25,4.43 -6.22,12.83 -7.01,17.34z"/>
    <path class="fil4" d="M1105.12 282.99c1.7,-10.13 18.27,-27.06 26.67,-34.33 8.96,-7.74 25.08,-17.51 35.8,-25.7 8.31,-6.33 12.23,-10.83 18.27,-18.06 5.48,-6.55 12.29,-21.52 13.5,-22.46 -0.83,4.97 -11.67,20.37 -15.33,23.14 -1.55,2.43 -2.81,3.42 -5.67,4.05l-4.9 4.24c-21.38,15.82 -37.3,21.37 -56.39,38.7 -9.05,8.22 -11.79,14.25 -14.47,16.85 -1.92,-2.55 -1.84,-7.84 -2.62,-11.3 -1.51,-1.33 -2.25,-12.16 -2.34,-14.09 -1.13,-23.28 3.14,-43.37 19.36,-59.41 14.05,-13.89 33.09,-14.74 49.77,-20.4 15.71,-5.32 31.03,-16.05 40.92,-29.11 1.08,-1.42 2.34,-2.81 3.45,-4.25 1.5,-1.93 2.14,-3.51 4.22,-4.76 2.23,1.1 0.65,-1.27 3.53,4.56 1.93,3.9 6.26,13.02 6.51,16.45 0.27,5.16 10.72,26.46 7.67,54.68 -1.99,18.35 -6.87,32.36 -16.85,47.47 -17.07,25.88 -52.26,43.21 -84.65,42.14 -1.43,-0.03 -3.18,-0.17 -4.55,-0.16 -0.21,0 -1.73,0.08 -1.86,0.12 -1.7,0.51 -0.28,-0.28 -1.54,1.01 9.13,-0.87 18.52,3.4 39.4,-0.94 10.44,-2.17 21.72,-6.57 31.02,-11.84 40.04,-22.7 57.85,-72.49 47.48,-117.36 -2.77,-12 -5.91,-21.12 -10.41,-32.47 -1.86,-4.68 -12.14,-25.87 -15.04,-27.85 -8.54,15.59 -22.79,35.75 -38.67,44.47 -20.04,10.99 -42.05,9.94 -60.36,23.53 -18.09,13.42 -27.17,31.02 -29.44,53.74 -2.61,26.05 5.31,47.95 11.17,72.45 2.21,-1.51 5.74,-10.17 6.37,-13.12z"/>
    <path class="fil5" d="M1053.66 231.47c-1.06,-1.05 1.27,-0.85 -2.15,-1.06 -3.23,0 -8.81,0.8 -11.31,-0.7 -8.88,1.28 -28.16,-6.75 -35.88,-11.5 -9.89,-6.08 -17.8,-13.72 -23.93,-23.49 -6.42,-10.23 -10.93,-23.05 -11.81,-35.35 -1.76,-24.65 5.47,-34.09 5.73,-41.78 0.8,-4.51 4.77,-12.91 7.01,-17.34 3.38,0.68 3.11,1.52 6.69,6.22 4.9,6.41 13.11,13.72 19.78,17.77 12.83,7.78 26.55,8.64 37.73,12.86 18.21,6.88 29.66,26.15 29.7,46.08 0.01,4.1 0.16,20.32 -2.37,24.33 -0.54,2.47 -0.25,3.43 -1.54,5.43 -1.13,-0.92 -5.21,-7.12 -10.11,-11.91 -13.13,-12.84 -37.67,-24.42 -39.36,-27.54 -3.12,-1.03 -4.95,-3.45 -7.74,-5.22 -0.06,1.48 0.36,1.11 -0.76,1.45l-1.53 -0.65c0.41,0.23 6.35,5.51 7.16,6.26 7.65,7.19 31.49,19.75 39.67,30.89 3.18,4.32 10.38,12.7 10.91,17.94l4.12 9.6c1.78,-2.25 6.48,-21.81 7.19,-25.65 1.98,-10.64 3.4,-19.7 2.39,-30.69 -1.63,-17.84 -9.36,-32.35 -23.19,-42.53 -14.84,-10.93 -31.93,-9.7 -47.42,-18.54 -19.5,-11.13 -28.22,-33.44 -30.97,-34.9 -7.6,10.09 -16.55,33.76 -19.55,46.99 -11.92,52.74 23.47,102.19 75.31,103.41 4.75,0.12 12.39,-0.96 16.25,-0.42z"/>
    <path class="fil6" d="M1099.97 258.13c0.78,3.45 0.7,8.75 2.62,11.3 2.67,-2.6 5.42,-8.62 14.47,-16.85 19.09,-17.33 35.01,-22.88 56.39,-38.7l-1.15 -0.42c-1.88,0.16 -14.94,8.17 -18.55,9.72 -14.05,6.07 -36.85,14.95 -48.02,25.13 -4.11,3.75 -6.17,3.89 -5.76,9.82z"/>
    <path class="fil6" d="M1072.85 207.53c0.48,-6.08 3.04,-6.04 -7.45,-13.9 -6.3,-4.73 -40.4,-20.6 -42.47,-20.53l-1.1 0.41c1.7,3.11 26.24,14.7 39.36,27.54 4.9,4.79 8.98,10.99 10.11,11.91 1.29,-2.01 1,-2.97 1.54,-5.43z"/>
    <path class="fil6" d="M1053.66 231.47c4.63,1.24 4.65,-0.8 5.36,-1.67 -2.38,-0.59 -2.37,-0.52 -4.98,-0.51 -3.8,0.03 -11.15,-0.34 -13.85,0.42 2.5,1.5 8.08,0.7 11.31,0.7 3.42,0.21 1.09,0.01 2.15,1.06z"/>
    <path class="fil6" d="M1123.62 292.38c1.26,-1.29 -0.16,-0.5 1.54,-1.01 0.13,-0.04 1.64,-0.12 1.86,-0.12 1.38,-0.01 3.12,0.14 4.55,0.16 -1.6,-2.26 -1.57,-1.25 -7.72,-1.24 -3.47,0.01 -4.51,-1 -8.18,-0.16 5.1,5.25 -3.54,-1.34 1.54,1.35l6.41 1.02z"/>
    <path class="fil6" d="M1014.09 168.3c2.79,1.77 4.62,4.19 7.74,5.22l1.1 -0.41c-2,-2.48 -5.72,-4.18 -8.56,-6.19l-1.27 0.83 0.98 0.55z"/>
    <path class="fil3" d="M1177.26 209.25l1.09 0.38c2.86,-0.63 4.13,-1.62 5.67,-4.05l-2.39 0c-0.91,1.33 -2.12,2.61 -3.06,3.7l-1.32 -0.03z"/>
    <path class="fil6" d="M1172.3 213.46l1.15 0.42 4.9 -4.24 -1.09 -0.38c-1.94,1.39 -3.8,2.23 -4.96,4.21z"/>
    <path class="fil4" d="M1011.8 169.1l1.53 0.65c1.12,-0.34 0.71,0.03 0.76,-1.45l-0.98 -0.55c-4.52,-1.16 -5.68,-4.32 -7.1,-6.35 -0.8,-1.16 -3.41,-3.12 -7.84,-10.26 -1.5,-2.42 -0.8,-1.24 -0.45,-1.89 0.01,0.01 5.57,9.17 6.09,10.02 1.72,2.74 5.65,7.18 8,9.84z"/>
   </g>
  </g>
 </g>
</svg>
